<mxfile host="app.diagrams.net" agent="Mozilla/5.0 (Windows NT 10.0; Win64; x64) AppleWebKit/537.36 (KHTML, like Gecko) Chrome/137.0.0.0 Safari/537.36" version="27.1.4">
  <diagram name="‫עמוד-1‬" id="6hhhAjYKerXMJTzdKyfo">
    <mxGraphModel dx="671" dy="1641" grid="1" gridSize="10" guides="1" tooltips="1" connect="1" arrows="1" fold="1" page="1" pageScale="1" pageWidth="827" pageHeight="1169" math="0" shadow="0">
      <root>
        <mxCell id="0" />
        <mxCell id="1" parent="0" />
        <mxCell id="ShSS7NOWxWKPyYZwDJwW-1" style="edgeStyle=orthogonalEdgeStyle;rounded=0;orthogonalLoop=1;jettySize=auto;html=1;exitX=1;exitY=1;exitDx=0;exitDy=0;entryX=0;entryY=0.5;entryDx=0;entryDy=0;curved=1;" parent="1" source="ShSS7NOWxWKPyYZwDJwW-35" target="ShSS7NOWxWKPyYZwDJwW-38" edge="1">
          <mxGeometry relative="1" as="geometry" />
        </mxCell>
        <mxCell id="ShSS7NOWxWKPyYZwDJwW-2" value="=" style="edgeLabel;html=1;align=center;verticalAlign=middle;resizable=0;points=[];" parent="ShSS7NOWxWKPyYZwDJwW-1" vertex="1" connectable="0">
          <mxGeometry x="-0.0426" relative="1" as="geometry">
            <mxPoint as="offset" />
          </mxGeometry>
        </mxCell>
        <mxCell id="ShSS7NOWxWKPyYZwDJwW-3" style="edgeStyle=orthogonalEdgeStyle;rounded=0;orthogonalLoop=1;jettySize=auto;html=1;exitX=1;exitY=1;exitDx=0;exitDy=0;entryX=0;entryY=0;entryDx=0;entryDy=0;curved=1;" parent="1" source="ShSS7NOWxWKPyYZwDJwW-35" target="ShSS7NOWxWKPyYZwDJwW-44" edge="1">
          <mxGeometry relative="1" as="geometry">
            <Array as="points">
              <mxPoint x="717.3333435058594" y="826.3333129882812" />
              <mxPoint x="717.3333435058594" y="934.3333129882812" />
            </Array>
          </mxGeometry>
        </mxCell>
        <mxCell id="ShSS7NOWxWKPyYZwDJwW-4" value="+" style="edgeLabel;html=1;align=center;verticalAlign=middle;resizable=0;points=[];" parent="ShSS7NOWxWKPyYZwDJwW-3" vertex="1" connectable="0">
          <mxGeometry x="0.0019" y="-1" relative="1" as="geometry">
            <mxPoint as="offset" />
          </mxGeometry>
        </mxCell>
        <mxCell id="ShSS7NOWxWKPyYZwDJwW-5" style="edgeStyle=orthogonalEdgeStyle;rounded=0;orthogonalLoop=1;jettySize=auto;html=1;exitX=1;exitY=1;exitDx=0;exitDy=0;entryX=0.5;entryY=0;entryDx=0;entryDy=0;curved=1;" parent="1" source="ShSS7NOWxWKPyYZwDJwW-35" target="ShSS7NOWxWKPyYZwDJwW-51" edge="1">
          <mxGeometry relative="1" as="geometry" />
        </mxCell>
        <mxCell id="ShSS7NOWxWKPyYZwDJwW-6" value="-" style="edgeLabel;html=1;align=center;verticalAlign=middle;resizable=0;points=[];" parent="ShSS7NOWxWKPyYZwDJwW-5" vertex="1" connectable="0">
          <mxGeometry x="-0.112" y="2" relative="1" as="geometry">
            <mxPoint as="offset" />
          </mxGeometry>
        </mxCell>
        <mxCell id="ShSS7NOWxWKPyYZwDJwW-7" style="edgeStyle=orthogonalEdgeStyle;rounded=0;orthogonalLoop=1;jettySize=auto;html=1;exitX=1;exitY=1;exitDx=0;exitDy=0;entryX=0;entryY=0.5;entryDx=0;entryDy=0;curved=1;" parent="1" source="ShSS7NOWxWKPyYZwDJwW-35" target="ShSS7NOWxWKPyYZwDJwW-56" edge="1">
          <mxGeometry relative="1" as="geometry" />
        </mxCell>
        <mxCell id="ShSS7NOWxWKPyYZwDJwW-8" value="/" style="edgeLabel;html=1;align=center;verticalAlign=middle;resizable=0;points=[];" parent="ShSS7NOWxWKPyYZwDJwW-7" vertex="1" connectable="0">
          <mxGeometry x="0.0879" y="3" relative="1" as="geometry">
            <mxPoint as="offset" />
          </mxGeometry>
        </mxCell>
        <mxCell id="ShSS7NOWxWKPyYZwDJwW-9" style="edgeStyle=orthogonalEdgeStyle;rounded=0;orthogonalLoop=1;jettySize=auto;html=1;exitX=1;exitY=1;exitDx=0;exitDy=0;entryX=0;entryY=0.5;entryDx=0;entryDy=0;curved=1;" parent="1" source="ShSS7NOWxWKPyYZwDJwW-35" target="ShSS7NOWxWKPyYZwDJwW-60" edge="1">
          <mxGeometry relative="1" as="geometry" />
        </mxCell>
        <mxCell id="ShSS7NOWxWKPyYZwDJwW-10" value="%" style="edgeLabel;html=1;align=center;verticalAlign=middle;resizable=0;points=[];" parent="ShSS7NOWxWKPyYZwDJwW-9" vertex="1" connectable="0">
          <mxGeometry x="0.1042" y="-2" relative="1" as="geometry">
            <mxPoint as="offset" />
          </mxGeometry>
        </mxCell>
        <mxCell id="ShSS7NOWxWKPyYZwDJwW-11" style="edgeStyle=orthogonalEdgeStyle;rounded=0;orthogonalLoop=1;jettySize=auto;html=1;exitX=1;exitY=1;exitDx=0;exitDy=0;entryX=0.5;entryY=0;entryDx=0;entryDy=0;curved=1;" parent="1" source="ShSS7NOWxWKPyYZwDJwW-35" target="ShSS7NOWxWKPyYZwDJwW-64" edge="1">
          <mxGeometry relative="1" as="geometry" />
        </mxCell>
        <mxCell id="ShSS7NOWxWKPyYZwDJwW-12" value="*" style="edgeLabel;html=1;align=center;verticalAlign=middle;resizable=0;points=[];" parent="ShSS7NOWxWKPyYZwDJwW-11" vertex="1" connectable="0">
          <mxGeometry x="0.0874" y="1" relative="1" as="geometry">
            <mxPoint as="offset" />
          </mxGeometry>
        </mxCell>
        <mxCell id="ShSS7NOWxWKPyYZwDJwW-13" style="edgeStyle=orthogonalEdgeStyle;rounded=0;orthogonalLoop=1;jettySize=auto;html=1;exitX=0;exitY=1;exitDx=0;exitDy=0;entryX=1;entryY=0;entryDx=0;entryDy=0;curved=1;" parent="1" source="ShSS7NOWxWKPyYZwDJwW-35" target="ShSS7NOWxWKPyYZwDJwW-73" edge="1">
          <mxGeometry relative="1" as="geometry" />
        </mxCell>
        <mxCell id="ShSS7NOWxWKPyYZwDJwW-14" value="&amp;amp;" style="edgeLabel;html=1;align=center;verticalAlign=middle;resizable=0;points=[];" parent="ShSS7NOWxWKPyYZwDJwW-13" vertex="1" connectable="0">
          <mxGeometry x="0.2518" y="-6" relative="1" as="geometry">
            <mxPoint as="offset" />
          </mxGeometry>
        </mxCell>
        <mxCell id="ShSS7NOWxWKPyYZwDJwW-15" style="edgeStyle=orthogonalEdgeStyle;rounded=0;orthogonalLoop=1;jettySize=auto;html=1;exitX=0;exitY=1;exitDx=0;exitDy=0;entryX=1;entryY=0;entryDx=0;entryDy=0;curved=1;" parent="1" source="ShSS7NOWxWKPyYZwDJwW-35" target="ShSS7NOWxWKPyYZwDJwW-75" edge="1">
          <mxGeometry relative="1" as="geometry" />
        </mxCell>
        <mxCell id="ShSS7NOWxWKPyYZwDJwW-16" value="(" style="edgeLabel;html=1;align=center;verticalAlign=middle;resizable=0;points=[];" parent="ShSS7NOWxWKPyYZwDJwW-15" vertex="1" connectable="0">
          <mxGeometry x="0.1989" y="3" relative="1" as="geometry">
            <mxPoint as="offset" />
          </mxGeometry>
        </mxCell>
        <mxCell id="ShSS7NOWxWKPyYZwDJwW-17" style="edgeStyle=orthogonalEdgeStyle;rounded=0;orthogonalLoop=1;jettySize=auto;html=1;exitX=0;exitY=0.5;exitDx=0;exitDy=0;entryX=1;entryY=1;entryDx=0;entryDy=0;curved=1;" parent="1" source="ShSS7NOWxWKPyYZwDJwW-35" target="ShSS7NOWxWKPyYZwDJwW-79" edge="1">
          <mxGeometry relative="1" as="geometry" />
        </mxCell>
        <mxCell id="ShSS7NOWxWKPyYZwDJwW-18" value="[" style="edgeLabel;html=1;align=center;verticalAlign=middle;resizable=0;points=[];" parent="ShSS7NOWxWKPyYZwDJwW-17" vertex="1" connectable="0">
          <mxGeometry x="-0.0767" y="-5" relative="1" as="geometry">
            <mxPoint as="offset" />
          </mxGeometry>
        </mxCell>
        <mxCell id="ShSS7NOWxWKPyYZwDJwW-19" style="edgeStyle=orthogonalEdgeStyle;rounded=0;orthogonalLoop=1;jettySize=auto;html=1;exitX=0;exitY=0.5;exitDx=0;exitDy=0;entryX=1;entryY=1;entryDx=0;entryDy=0;curved=1;" parent="1" source="ShSS7NOWxWKPyYZwDJwW-35" target="ShSS7NOWxWKPyYZwDJwW-80" edge="1">
          <mxGeometry relative="1" as="geometry">
            <Array as="points">
              <mxPoint x="537" y="798" />
              <mxPoint x="537" y="741" />
            </Array>
          </mxGeometry>
        </mxCell>
        <mxCell id="ShSS7NOWxWKPyYZwDJwW-20" value="]" style="edgeLabel;html=1;align=center;verticalAlign=middle;resizable=0;points=[];" parent="ShSS7NOWxWKPyYZwDJwW-19" vertex="1" connectable="0">
          <mxGeometry x="0.2385" y="-4" relative="1" as="geometry">
            <mxPoint y="-1" as="offset" />
          </mxGeometry>
        </mxCell>
        <mxCell id="ShSS7NOWxWKPyYZwDJwW-21" style="edgeStyle=orthogonalEdgeStyle;rounded=0;orthogonalLoop=1;jettySize=auto;html=1;exitX=0;exitY=0.5;exitDx=0;exitDy=0;entryX=1;entryY=0.5;entryDx=0;entryDy=0;curved=1;" parent="1" source="ShSS7NOWxWKPyYZwDJwW-35" target="ShSS7NOWxWKPyYZwDJwW-81" edge="1">
          <mxGeometry relative="1" as="geometry" />
        </mxCell>
        <mxCell id="ShSS7NOWxWKPyYZwDJwW-22" value="{" style="edgeLabel;html=1;align=center;verticalAlign=middle;resizable=0;points=[];" parent="ShSS7NOWxWKPyYZwDJwW-21" vertex="1" connectable="0">
          <mxGeometry x="0.5185" y="15" relative="1" as="geometry">
            <mxPoint as="offset" />
          </mxGeometry>
        </mxCell>
        <mxCell id="ShSS7NOWxWKPyYZwDJwW-23" style="edgeStyle=orthogonalEdgeStyle;rounded=0;orthogonalLoop=1;jettySize=auto;html=1;exitX=0;exitY=0.5;exitDx=0;exitDy=0;entryX=0.5;entryY=1;entryDx=0;entryDy=0;curved=1;" parent="1" source="ShSS7NOWxWKPyYZwDJwW-35" target="ShSS7NOWxWKPyYZwDJwW-82" edge="1">
          <mxGeometry relative="1" as="geometry">
            <Array as="points">
              <mxPoint x="540" y="798" />
              <mxPoint x="540" y="642" />
            </Array>
          </mxGeometry>
        </mxCell>
        <mxCell id="ShSS7NOWxWKPyYZwDJwW-24" value="}" style="edgeLabel;html=1;align=center;verticalAlign=middle;resizable=0;points=[];" parent="ShSS7NOWxWKPyYZwDJwW-23" vertex="1" connectable="0">
          <mxGeometry x="0.272" y="1" relative="1" as="geometry">
            <mxPoint y="1" as="offset" />
          </mxGeometry>
        </mxCell>
        <mxCell id="ShSS7NOWxWKPyYZwDJwW-25" style="edgeStyle=orthogonalEdgeStyle;rounded=0;orthogonalLoop=1;jettySize=auto;html=1;exitX=1;exitY=0.5;exitDx=0;exitDy=0;curved=1;entryX=1;entryY=0.5;entryDx=0;entryDy=0;" parent="1" source="ShSS7NOWxWKPyYZwDJwW-35" target="ShSS7NOWxWKPyYZwDJwW-35" edge="1">
          <mxGeometry relative="1" as="geometry">
            <mxPoint x="716.151533647017" y="737.2727272727273" as="targetPoint" />
            <Array as="points">
              <mxPoint x="737" y="798" />
              <mxPoint x="737" y="738" />
              <mxPoint x="698" y="738" />
            </Array>
          </mxGeometry>
        </mxCell>
        <mxCell id="ShSS7NOWxWKPyYZwDJwW-26" value="new line&lt;div&gt;space&lt;/div&gt;" style="edgeLabel;html=1;align=center;verticalAlign=middle;resizable=0;points=[];" parent="ShSS7NOWxWKPyYZwDJwW-25" vertex="1" connectable="0">
          <mxGeometry x="0.1736" y="1" relative="1" as="geometry">
            <mxPoint as="offset" />
          </mxGeometry>
        </mxCell>
        <mxCell id="ShSS7NOWxWKPyYZwDJwW-27" style="edgeStyle=orthogonalEdgeStyle;rounded=0;orthogonalLoop=1;jettySize=auto;html=1;exitX=0;exitY=0;exitDx=0;exitDy=0;entryX=0.5;entryY=1;entryDx=0;entryDy=0;curved=1;" parent="1" source="ShSS7NOWxWKPyYZwDJwW-35" target="ShSS7NOWxWKPyYZwDJwW-87" edge="1">
          <mxGeometry relative="1" as="geometry" />
        </mxCell>
        <mxCell id="ShSS7NOWxWKPyYZwDJwW-28" value="|" style="edgeLabel;html=1;align=center;verticalAlign=middle;resizable=0;points=[];" parent="ShSS7NOWxWKPyYZwDJwW-27" vertex="1" connectable="0">
          <mxGeometry x="0.5299" y="-2" relative="1" as="geometry">
            <mxPoint as="offset" />
          </mxGeometry>
        </mxCell>
        <mxCell id="ShSS7NOWxWKPyYZwDJwW-29" style="edgeStyle=orthogonalEdgeStyle;rounded=0;orthogonalLoop=1;jettySize=auto;html=1;exitX=0;exitY=0;exitDx=0;exitDy=0;entryX=0;entryY=1;entryDx=0;entryDy=0;curved=1;" parent="1" source="ShSS7NOWxWKPyYZwDJwW-35" target="ShSS7NOWxWKPyYZwDJwW-89" edge="1">
          <mxGeometry relative="1" as="geometry">
            <Array as="points">
              <mxPoint x="561" y="770" />
            </Array>
          </mxGeometry>
        </mxCell>
        <mxCell id="ShSS7NOWxWKPyYZwDJwW-30" value="?" style="edgeLabel;html=1;align=center;verticalAlign=middle;resizable=0;points=[];" parent="ShSS7NOWxWKPyYZwDJwW-29" vertex="1" connectable="0">
          <mxGeometry x="0.4905" y="-4" relative="1" as="geometry">
            <mxPoint as="offset" />
          </mxGeometry>
        </mxCell>
        <mxCell id="ShSS7NOWxWKPyYZwDJwW-31" style="edgeStyle=orthogonalEdgeStyle;rounded=0;orthogonalLoop=1;jettySize=auto;html=1;exitX=0;exitY=0;exitDx=0;exitDy=0;entryX=0;entryY=1;entryDx=0;entryDy=0;curved=1;" parent="1" source="ShSS7NOWxWKPyYZwDJwW-35" target="ShSS7NOWxWKPyYZwDJwW-90" edge="1">
          <mxGeometry relative="1" as="geometry">
            <Array as="points">
              <mxPoint x="630" y="739" />
              <mxPoint x="596" y="739" />
            </Array>
          </mxGeometry>
        </mxCell>
        <mxCell id="ShSS7NOWxWKPyYZwDJwW-32" value=":" style="edgeLabel;html=1;align=center;verticalAlign=middle;resizable=0;points=[];" parent="ShSS7NOWxWKPyYZwDJwW-31" vertex="1" connectable="0">
          <mxGeometry x="-0.0256" y="5" relative="1" as="geometry">
            <mxPoint as="offset" />
          </mxGeometry>
        </mxCell>
        <mxCell id="ShSS7NOWxWKPyYZwDJwW-33" style="edgeStyle=orthogonalEdgeStyle;rounded=0;orthogonalLoop=1;jettySize=auto;html=1;exitX=0.5;exitY=0;exitDx=0;exitDy=0;entryX=0;entryY=1;entryDx=0;entryDy=0;curved=1;" parent="1" source="ShSS7NOWxWKPyYZwDJwW-35" target="ShSS7NOWxWKPyYZwDJwW-95" edge="1">
          <mxGeometry relative="1" as="geometry" />
        </mxCell>
        <mxCell id="ShSS7NOWxWKPyYZwDJwW-34" value="^" style="edgeLabel;html=1;align=center;verticalAlign=middle;resizable=0;points=[];" parent="ShSS7NOWxWKPyYZwDJwW-33" vertex="1" connectable="0">
          <mxGeometry x="-0.1511" relative="1" as="geometry">
            <mxPoint as="offset" />
          </mxGeometry>
        </mxCell>
        <mxCell id="ShSS7NOWxWKPyYZwDJwW-35" value="q0" style="ellipse;whiteSpace=wrap;html=1;aspect=fixed;" parent="1" vertex="1">
          <mxGeometry x="618.3333435058594" y="758.3333129882812" width="80" height="80" as="geometry" />
        </mxCell>
        <mxCell id="ShSS7NOWxWKPyYZwDJwW-36" style="edgeStyle=orthogonalEdgeStyle;rounded=0;orthogonalLoop=1;jettySize=auto;html=1;exitX=1;exitY=0.5;exitDx=0;exitDy=0;curved=1;" parent="1" source="ShSS7NOWxWKPyYZwDJwW-38" target="ShSS7NOWxWKPyYZwDJwW-39" edge="1">
          <mxGeometry relative="1" as="geometry" />
        </mxCell>
        <mxCell id="ShSS7NOWxWKPyYZwDJwW-37" value="=" style="edgeLabel;html=1;align=center;verticalAlign=middle;resizable=0;points=[];" parent="ShSS7NOWxWKPyYZwDJwW-36" vertex="1" connectable="0">
          <mxGeometry x="-0.1014" y="2" relative="1" as="geometry">
            <mxPoint as="offset" />
          </mxGeometry>
        </mxCell>
        <mxCell id="ShSS7NOWxWKPyYZwDJwW-38" value="q1&lt;div&gt;equal&lt;/div&gt;" style="ellipse;whiteSpace=wrap;html=1;aspect=fixed;shadow=0;fillColor=default;fillStyle=auto;gradientColor=none;strokeColor=#00FF00;" parent="1" vertex="1">
          <mxGeometry x="792.3333435058594" y="825.3333129882812" width="80" height="80" as="geometry" />
        </mxCell>
        <mxCell id="ShSS7NOWxWKPyYZwDJwW-39" value="q2&lt;div&gt;is_equal&lt;/div&gt;" style="ellipse;whiteSpace=wrap;html=1;aspect=fixed;strokeColor=#00FF00;" parent="1" vertex="1">
          <mxGeometry x="924.3333435058594" y="825.3333129882812" width="80" height="80" as="geometry" />
        </mxCell>
        <mxCell id="ShSS7NOWxWKPyYZwDJwW-40" style="edgeStyle=orthogonalEdgeStyle;rounded=0;orthogonalLoop=1;jettySize=auto;html=1;exitX=1;exitY=0.5;exitDx=0;exitDy=0;entryX=0;entryY=0.5;entryDx=0;entryDy=0;curved=1;" parent="1" source="ShSS7NOWxWKPyYZwDJwW-44" target="ShSS7NOWxWKPyYZwDJwW-45" edge="1">
          <mxGeometry relative="1" as="geometry" />
        </mxCell>
        <mxCell id="ShSS7NOWxWKPyYZwDJwW-41" value="=" style="edgeLabel;html=1;align=center;verticalAlign=middle;resizable=0;points=[];" parent="ShSS7NOWxWKPyYZwDJwW-40" vertex="1" connectable="0">
          <mxGeometry x="0.1579" y="-3" relative="1" as="geometry">
            <mxPoint as="offset" />
          </mxGeometry>
        </mxCell>
        <mxCell id="ShSS7NOWxWKPyYZwDJwW-42" style="edgeStyle=orthogonalEdgeStyle;rounded=0;orthogonalLoop=1;jettySize=auto;html=1;exitX=1;exitY=1;exitDx=0;exitDy=0;entryX=0;entryY=0;entryDx=0;entryDy=0;curved=1;" parent="1" source="ShSS7NOWxWKPyYZwDJwW-44" target="ShSS7NOWxWKPyYZwDJwW-46" edge="1">
          <mxGeometry relative="1" as="geometry" />
        </mxCell>
        <mxCell id="ShSS7NOWxWKPyYZwDJwW-43" value="+" style="edgeLabel;html=1;align=center;verticalAlign=middle;resizable=0;points=[];" parent="ShSS7NOWxWKPyYZwDJwW-42" vertex="1" connectable="0">
          <mxGeometry x="-0.2003" y="-8" relative="1" as="geometry">
            <mxPoint as="offset" />
          </mxGeometry>
        </mxCell>
        <mxCell id="ShSS7NOWxWKPyYZwDJwW-44" value="q3&lt;div&gt;plus&lt;/div&gt;" style="ellipse;whiteSpace=wrap;html=1;aspect=fixed;strokeColor=#00FF00;" parent="1" vertex="1">
          <mxGeometry x="741.3333435058594" y="922.3333129882812" width="80" height="80" as="geometry" />
        </mxCell>
        <mxCell id="ShSS7NOWxWKPyYZwDJwW-45" value="q4&lt;div&gt;plus_equal&lt;/div&gt;" style="ellipse;whiteSpace=wrap;html=1;aspect=fixed;strokeColor=#00FF00;" parent="1" vertex="1">
          <mxGeometry x="878.3333435058594" y="922.3333129882812" width="80" height="80" as="geometry" />
        </mxCell>
        <mxCell id="ShSS7NOWxWKPyYZwDJwW-46" value="q5&lt;div&gt;increment&lt;/div&gt;" style="ellipse;whiteSpace=wrap;html=1;aspect=fixed;strokeColor=#00FF00;" parent="1" vertex="1">
          <mxGeometry x="844.3333435058594" y="1019.3333129882812" width="80" height="80" as="geometry" />
        </mxCell>
        <mxCell id="ShSS7NOWxWKPyYZwDJwW-47" style="edgeStyle=orthogonalEdgeStyle;rounded=0;orthogonalLoop=1;jettySize=auto;html=1;exitX=1;exitY=1;exitDx=0;exitDy=0;entryX=0.5;entryY=0;entryDx=0;entryDy=0;curved=1;" parent="1" source="ShSS7NOWxWKPyYZwDJwW-51" target="ShSS7NOWxWKPyYZwDJwW-52" edge="1">
          <mxGeometry relative="1" as="geometry" />
        </mxCell>
        <mxCell id="ShSS7NOWxWKPyYZwDJwW-48" value="-" style="edgeLabel;html=1;align=center;verticalAlign=middle;resizable=0;points=[];" parent="ShSS7NOWxWKPyYZwDJwW-47" vertex="1" connectable="0">
          <mxGeometry x="0.3071" y="-11" relative="1" as="geometry">
            <mxPoint as="offset" />
          </mxGeometry>
        </mxCell>
        <mxCell id="ShSS7NOWxWKPyYZwDJwW-49" style="edgeStyle=orthogonalEdgeStyle;rounded=0;orthogonalLoop=1;jettySize=auto;html=1;exitX=0;exitY=1;exitDx=0;exitDy=0;entryX=0.5;entryY=0;entryDx=0;entryDy=0;curved=1;" parent="1" source="ShSS7NOWxWKPyYZwDJwW-51" target="ShSS7NOWxWKPyYZwDJwW-53" edge="1">
          <mxGeometry relative="1" as="geometry" />
        </mxCell>
        <mxCell id="ShSS7NOWxWKPyYZwDJwW-50" value="=" style="edgeLabel;html=1;align=center;verticalAlign=middle;resizable=0;points=[];" parent="ShSS7NOWxWKPyYZwDJwW-49" vertex="1" connectable="0">
          <mxGeometry x="-0.3497" y="-6" relative="1" as="geometry">
            <mxPoint as="offset" />
          </mxGeometry>
        </mxCell>
        <mxCell id="ShSS7NOWxWKPyYZwDJwW-51" value="q6&lt;div&gt;subtraction&lt;/div&gt;" style="ellipse;whiteSpace=wrap;html=1;aspect=fixed;strokeColor=#00FF00;" parent="1" vertex="1">
          <mxGeometry x="629.0033435058594" y="878.0033129882813" width="80" height="80" as="geometry" />
        </mxCell>
        <mxCell id="ShSS7NOWxWKPyYZwDJwW-52" value="q7&lt;div&gt;decrement&lt;/div&gt;" style="ellipse;whiteSpace=wrap;html=1;aspect=fixed;strokeColor=#00FF00;" parent="1" vertex="1">
          <mxGeometry x="690.0033435058594" y="1031.0033129882813" width="80" height="80" as="geometry" />
        </mxCell>
        <mxCell id="ShSS7NOWxWKPyYZwDJwW-53" value="q8&lt;div&gt;subtraction_equal&lt;/div&gt;" style="ellipse;whiteSpace=wrap;html=1;aspect=fixed;strokeColor=#00FF00;" parent="1" vertex="1">
          <mxGeometry x="589.0033435058594" y="998.0033129882812" width="80" height="80" as="geometry" />
        </mxCell>
        <mxCell id="ShSS7NOWxWKPyYZwDJwW-54" style="edgeStyle=orthogonalEdgeStyle;rounded=0;orthogonalLoop=1;jettySize=auto;html=1;exitX=1;exitY=0.5;exitDx=0;exitDy=0;curved=1;" parent="1" source="ShSS7NOWxWKPyYZwDJwW-56" target="ShSS7NOWxWKPyYZwDJwW-57" edge="1">
          <mxGeometry relative="1" as="geometry" />
        </mxCell>
        <mxCell id="ShSS7NOWxWKPyYZwDJwW-55" value="=" style="edgeLabel;html=1;align=center;verticalAlign=middle;resizable=0;points=[];" parent="ShSS7NOWxWKPyYZwDJwW-54" vertex="1" connectable="0">
          <mxGeometry x="0.0444" y="1" relative="1" as="geometry">
            <mxPoint as="offset" />
          </mxGeometry>
        </mxCell>
        <mxCell id="ShSS7NOWxWKPyYZwDJwW-56" value="q9&lt;div&gt;division&lt;/div&gt;" style="ellipse;whiteSpace=wrap;html=1;aspect=fixed;strokeColor=#00FF00;" parent="1" vertex="1">
          <mxGeometry x="844.3333435058594" y="734.3333129882812" width="80" height="80" as="geometry" />
        </mxCell>
        <mxCell id="ShSS7NOWxWKPyYZwDJwW-57" value="q10&lt;div&gt;division_equal&lt;/div&gt;" style="ellipse;whiteSpace=wrap;html=1;aspect=fixed;strokeColor=#00FF00;" parent="1" vertex="1">
          <mxGeometry x="985.3333435058594" y="734.3333129882812" width="80" height="80" as="geometry" />
        </mxCell>
        <mxCell id="ShSS7NOWxWKPyYZwDJwW-58" style="edgeStyle=orthogonalEdgeStyle;rounded=0;orthogonalLoop=1;jettySize=auto;html=1;exitX=1;exitY=0.5;exitDx=0;exitDy=0;entryX=0;entryY=0.5;entryDx=0;entryDy=0;curved=1;" parent="1" source="ShSS7NOWxWKPyYZwDJwW-60" target="ShSS7NOWxWKPyYZwDJwW-61" edge="1">
          <mxGeometry relative="1" as="geometry" />
        </mxCell>
        <mxCell id="ShSS7NOWxWKPyYZwDJwW-59" value="=" style="edgeLabel;html=1;align=center;verticalAlign=middle;resizable=0;points=[];" parent="ShSS7NOWxWKPyYZwDJwW-58" vertex="1" connectable="0">
          <mxGeometry x="-0.0891" y="4" relative="1" as="geometry">
            <mxPoint as="offset" />
          </mxGeometry>
        </mxCell>
        <mxCell id="ShSS7NOWxWKPyYZwDJwW-60" value="q11&lt;div&gt;mod&lt;/div&gt;" style="ellipse;whiteSpace=wrap;html=1;aspect=fixed;strokeColor=#00FF00;" parent="1" vertex="1">
          <mxGeometry x="798.3299999999999" y="654.33" width="80" height="80" as="geometry" />
        </mxCell>
        <mxCell id="ShSS7NOWxWKPyYZwDJwW-61" value="q12&lt;div&gt;mod_equal&lt;/div&gt;" style="ellipse;whiteSpace=wrap;html=1;aspect=fixed;strokeColor=#00FF00;" parent="1" vertex="1">
          <mxGeometry x="929" y="654.33" width="80" height="80" as="geometry" />
        </mxCell>
        <mxCell id="ShSS7NOWxWKPyYZwDJwW-62" style="edgeStyle=orthogonalEdgeStyle;rounded=0;orthogonalLoop=1;jettySize=auto;html=1;exitX=0.5;exitY=1;exitDx=0;exitDy=0;entryX=0.5;entryY=0;entryDx=0;entryDy=0;curved=1;" parent="1" source="ShSS7NOWxWKPyYZwDJwW-64" target="ShSS7NOWxWKPyYZwDJwW-65" edge="1">
          <mxGeometry relative="1" as="geometry" />
        </mxCell>
        <mxCell id="ShSS7NOWxWKPyYZwDJwW-63" value="=" style="edgeLabel;html=1;align=center;verticalAlign=middle;resizable=0;points=[];" parent="ShSS7NOWxWKPyYZwDJwW-62" vertex="1" connectable="0">
          <mxGeometry x="0.0082" y="4" relative="1" as="geometry">
            <mxPoint as="offset" />
          </mxGeometry>
        </mxCell>
        <mxCell id="ShSS7NOWxWKPyYZwDJwW-64" value="q13&lt;div&gt;star&lt;/div&gt;" style="ellipse;whiteSpace=wrap;html=1;aspect=fixed;strokeColor=#00FF00;" parent="1" vertex="1">
          <mxGeometry x="543" y="878" width="80" height="80" as="geometry" />
        </mxCell>
        <mxCell id="ShSS7NOWxWKPyYZwDJwW-65" value="q14&lt;div&gt;star_equal&lt;/div&gt;" style="ellipse;whiteSpace=wrap;html=1;aspect=fixed;strokeColor=#00FF00;" parent="1" vertex="1">
          <mxGeometry x="488" y="998" width="80" height="80" as="geometry" />
        </mxCell>
        <mxCell id="ShSS7NOWxWKPyYZwDJwW-66" value="q15&lt;div&gt;semicolon&lt;/div&gt;" style="ellipse;whiteSpace=wrap;html=1;aspect=fixed;strokeColor=#00FF00;" parent="1" vertex="1">
          <mxGeometry x="454" y="909" width="80" height="80" as="geometry" />
        </mxCell>
        <mxCell id="ShSS7NOWxWKPyYZwDJwW-67" style="edgeStyle=orthogonalEdgeStyle;rounded=0;orthogonalLoop=1;jettySize=auto;html=1;exitX=0;exitY=1;exitDx=0;exitDy=0;entryX=0.97;entryY=0.381;entryDx=0;entryDy=0;entryPerimeter=0;curved=1;" parent="1" source="ShSS7NOWxWKPyYZwDJwW-35" target="ShSS7NOWxWKPyYZwDJwW-66" edge="1">
          <mxGeometry relative="1" as="geometry" />
        </mxCell>
        <mxCell id="ShSS7NOWxWKPyYZwDJwW-68" value=";" style="edgeLabel;html=1;align=center;verticalAlign=middle;resizable=0;points=[];" parent="ShSS7NOWxWKPyYZwDJwW-67" vertex="1" connectable="0">
          <mxGeometry x="0.2121" y="17" relative="1" as="geometry">
            <mxPoint as="offset" />
          </mxGeometry>
        </mxCell>
        <mxCell id="ShSS7NOWxWKPyYZwDJwW-69" style="edgeStyle=orthogonalEdgeStyle;rounded=0;orthogonalLoop=1;jettySize=auto;html=1;exitX=0;exitY=1;exitDx=0;exitDy=0;entryX=0.5;entryY=0;entryDx=0;entryDy=0;curved=1;" parent="1" source="ShSS7NOWxWKPyYZwDJwW-73" target="ShSS7NOWxWKPyYZwDJwW-74" edge="1">
          <mxGeometry relative="1" as="geometry" />
        </mxCell>
        <mxCell id="ShSS7NOWxWKPyYZwDJwW-70" value="=" style="edgeLabel;html=1;align=center;verticalAlign=middle;resizable=0;points=[];" parent="ShSS7NOWxWKPyYZwDJwW-69" vertex="1" connectable="0">
          <mxGeometry x="0.0542" y="3" relative="1" as="geometry">
            <mxPoint as="offset" />
          </mxGeometry>
        </mxCell>
        <mxCell id="ShSS7NOWxWKPyYZwDJwW-71" style="edgeStyle=orthogonalEdgeStyle;rounded=0;orthogonalLoop=1;jettySize=auto;html=1;exitX=0;exitY=1;exitDx=0;exitDy=0;entryX=1;entryY=0;entryDx=0;entryDy=0;curved=1;" parent="1" source="ShSS7NOWxWKPyYZwDJwW-73" target="ShSS7NOWxWKPyYZwDJwW-91" edge="1">
          <mxGeometry relative="1" as="geometry" />
        </mxCell>
        <mxCell id="ShSS7NOWxWKPyYZwDJwW-72" value="&amp;amp;" style="edgeLabel;html=1;align=center;verticalAlign=middle;resizable=0;points=[];" parent="ShSS7NOWxWKPyYZwDJwW-71" vertex="1" connectable="0">
          <mxGeometry x="-0.0101" y="3" relative="1" as="geometry">
            <mxPoint as="offset" />
          </mxGeometry>
        </mxCell>
        <mxCell id="ShSS7NOWxWKPyYZwDJwW-73" value="q16&lt;div&gt;ampersand&lt;/div&gt;" style="ellipse;whiteSpace=wrap;html=1;aspect=fixed;strokeColor=#00FF00;" parent="1" vertex="1">
          <mxGeometry x="450" y="825.3299999999999" width="80" height="80" as="geometry" />
        </mxCell>
        <mxCell id="ShSS7NOWxWKPyYZwDJwW-74" value="q17&lt;div&gt;ampersand_equal&lt;/div&gt;" style="ellipse;whiteSpace=wrap;html=1;aspect=fixed;strokeColor=#00FF00;" parent="1" vertex="1">
          <mxGeometry x="370" y="970" width="80" height="80" as="geometry" />
        </mxCell>
        <mxCell id="ShSS7NOWxWKPyYZwDJwW-75" value="q18&lt;div&gt;open_parentheses&lt;/div&gt;" style="ellipse;whiteSpace=wrap;html=1;aspect=fixed;strokeColor=#00FF00;" parent="1" vertex="1">
          <mxGeometry x="357" y="798" width="80" height="80" as="geometry" />
        </mxCell>
        <mxCell id="ShSS7NOWxWKPyYZwDJwW-76" value="q19&lt;div&gt;close_parentheses&lt;/div&gt;" style="ellipse;whiteSpace=wrap;html=1;aspect=fixed;strokeColor=#00FF00;" parent="1" vertex="1">
          <mxGeometry x="270" y="761" width="80" height="80" as="geometry" />
        </mxCell>
        <mxCell id="ShSS7NOWxWKPyYZwDJwW-77" style="edgeStyle=orthogonalEdgeStyle;rounded=0;orthogonalLoop=1;jettySize=auto;html=1;exitX=0;exitY=1;exitDx=0;exitDy=0;entryX=1.01;entryY=0.376;entryDx=0;entryDy=0;entryPerimeter=0;curved=1;" parent="1" source="ShSS7NOWxWKPyYZwDJwW-35" target="ShSS7NOWxWKPyYZwDJwW-76" edge="1">
          <mxGeometry relative="1" as="geometry">
            <Array as="points">
              <mxPoint x="531" y="827" />
              <mxPoint x="531" y="791" />
            </Array>
          </mxGeometry>
        </mxCell>
        <mxCell id="ShSS7NOWxWKPyYZwDJwW-78" value=")" style="edgeLabel;html=1;align=center;verticalAlign=middle;resizable=0;points=[];" parent="ShSS7NOWxWKPyYZwDJwW-77" vertex="1" connectable="0">
          <mxGeometry x="0.1141" y="4" relative="1" as="geometry">
            <mxPoint as="offset" />
          </mxGeometry>
        </mxCell>
        <mxCell id="ShSS7NOWxWKPyYZwDJwW-79" value="q20&lt;div&gt;open_square_brackets&lt;/div&gt;" style="ellipse;whiteSpace=wrap;html=1;aspect=fixed;strokeColor=#00FF00;" parent="1" vertex="1">
          <mxGeometry x="333" y="691" width="80" height="80" as="geometry" />
        </mxCell>
        <mxCell id="ShSS7NOWxWKPyYZwDJwW-80" value="q21&lt;div&gt;close_square_brackets&lt;/div&gt;" style="ellipse;whiteSpace=wrap;html=1;aspect=fixed;strokeColor=#00FF00;" parent="1" vertex="1">
          <mxGeometry x="430" y="673" width="80" height="80" as="geometry" />
        </mxCell>
        <mxCell id="ShSS7NOWxWKPyYZwDJwW-81" value="q22&lt;div&gt;open_curly_brackets&lt;/div&gt;" style="ellipse;whiteSpace=wrap;html=1;aspect=fixed;strokeColor=#00FF00;" parent="1" vertex="1">
          <mxGeometry x="363" y="611" width="80" height="80" as="geometry" />
        </mxCell>
        <mxCell id="ShSS7NOWxWKPyYZwDJwW-82" value="q23&lt;div&gt;close_curly_brackets&lt;/div&gt;" style="ellipse;whiteSpace=wrap;html=1;aspect=fixed;strokeColor=#00FF00;" parent="1" vertex="1">
          <mxGeometry x="447" y="562" width="80" height="80" as="geometry" />
        </mxCell>
        <mxCell id="ShSS7NOWxWKPyYZwDJwW-83" style="edgeStyle=orthogonalEdgeStyle;rounded=0;orthogonalLoop=1;jettySize=auto;html=1;exitX=0;exitY=0.5;exitDx=0;exitDy=0;entryX=1;entryY=0.5;entryDx=0;entryDy=0;curved=1;" parent="1" source="ShSS7NOWxWKPyYZwDJwW-87" target="ShSS7NOWxWKPyYZwDJwW-88" edge="1">
          <mxGeometry relative="1" as="geometry" />
        </mxCell>
        <mxCell id="ShSS7NOWxWKPyYZwDJwW-84" value="=" style="edgeLabel;html=1;align=center;verticalAlign=middle;resizable=0;points=[];" parent="ShSS7NOWxWKPyYZwDJwW-83" vertex="1" connectable="0">
          <mxGeometry x="-0.1565" y="-1" relative="1" as="geometry">
            <mxPoint as="offset" />
          </mxGeometry>
        </mxCell>
        <mxCell id="ShSS7NOWxWKPyYZwDJwW-85" style="edgeStyle=orthogonalEdgeStyle;rounded=0;orthogonalLoop=1;jettySize=auto;html=1;exitX=0;exitY=0;exitDx=0;exitDy=0;entryX=1;entryY=1;entryDx=0;entryDy=0;curved=1;" parent="1" source="ShSS7NOWxWKPyYZwDJwW-87" target="ShSS7NOWxWKPyYZwDJwW-92" edge="1">
          <mxGeometry relative="1" as="geometry" />
        </mxCell>
        <mxCell id="ShSS7NOWxWKPyYZwDJwW-86" value="|" style="edgeLabel;html=1;align=center;verticalAlign=middle;resizable=0;points=[];" parent="ShSS7NOWxWKPyYZwDJwW-85" vertex="1" connectable="0">
          <mxGeometry x="-0.2153" y="-6" relative="1" as="geometry">
            <mxPoint x="1" as="offset" />
          </mxGeometry>
        </mxCell>
        <mxCell id="ShSS7NOWxWKPyYZwDJwW-87" value="q24&lt;div&gt;pipe&lt;/div&gt;" style="ellipse;whiteSpace=wrap;html=1;aspect=fixed;strokeColor=#00FF00;" parent="1" vertex="1">
          <mxGeometry x="494" y="487" width="80" height="80" as="geometry" />
        </mxCell>
        <mxCell id="ShSS7NOWxWKPyYZwDJwW-88" value="q25&lt;div&gt;pipe_equal&lt;/div&gt;" style="ellipse;whiteSpace=wrap;html=1;aspect=fixed;strokeColor=#00FF00;" parent="1" vertex="1">
          <mxGeometry x="353" y="487" width="80" height="80" as="geometry" />
        </mxCell>
        <mxCell id="ShSS7NOWxWKPyYZwDJwW-89" value="q26&lt;div&gt;question_mark&lt;/div&gt;" style="ellipse;whiteSpace=wrap;html=1;aspect=fixed;strokeColor=#00FF00;" parent="1" vertex="1">
          <mxGeometry x="549" y="556" width="80" height="80" as="geometry" />
        </mxCell>
        <mxCell id="ShSS7NOWxWKPyYZwDJwW-90" value="q27&lt;div&gt;colon&lt;/div&gt;" style="ellipse;whiteSpace=wrap;html=1;aspect=fixed;strokeColor=#00FF00;" parent="1" vertex="1">
          <mxGeometry x="584" y="639" width="80" height="80" as="geometry" />
        </mxCell>
        <mxCell id="ShSS7NOWxWKPyYZwDJwW-91" value="q28&lt;div&gt;AND&lt;/div&gt;" style="ellipse;whiteSpace=wrap;html=1;aspect=fixed;strokeColor=#00FF00;" parent="1" vertex="1">
          <mxGeometry x="309" y="890" width="80" height="80" as="geometry" />
        </mxCell>
        <mxCell id="ShSS7NOWxWKPyYZwDJwW-92" value="q29&lt;div&gt;OR&lt;/div&gt;" style="ellipse;whiteSpace=wrap;html=1;aspect=fixed;strokeColor=#00FF00;" parent="1" vertex="1">
          <mxGeometry x="387" y="390" width="80" height="80" as="geometry" />
        </mxCell>
        <mxCell id="ShSS7NOWxWKPyYZwDJwW-93" style="edgeStyle=orthogonalEdgeStyle;rounded=0;orthogonalLoop=1;jettySize=auto;html=1;exitX=0.5;exitY=0;exitDx=0;exitDy=0;entryX=0.5;entryY=1;entryDx=0;entryDy=0;" parent="1" source="ShSS7NOWxWKPyYZwDJwW-95" target="ShSS7NOWxWKPyYZwDJwW-96" edge="1">
          <mxGeometry relative="1" as="geometry" />
        </mxCell>
        <mxCell id="ShSS7NOWxWKPyYZwDJwW-94" value="=" style="edgeLabel;html=1;align=center;verticalAlign=middle;resizable=0;points=[];" parent="ShSS7NOWxWKPyYZwDJwW-93" vertex="1" connectable="0">
          <mxGeometry x="-0.1176" relative="1" as="geometry">
            <mxPoint as="offset" />
          </mxGeometry>
        </mxCell>
        <mxCell id="ShSS7NOWxWKPyYZwDJwW-95" value="q30&lt;div&gt;xor&lt;/div&gt;" style="ellipse;whiteSpace=wrap;html=1;aspect=fixed;strokeColor=#00FF00;" parent="1" vertex="1">
          <mxGeometry x="680" y="631" width="80" height="80" as="geometry" />
        </mxCell>
        <mxCell id="ShSS7NOWxWKPyYZwDJwW-96" value="q31&lt;div&gt;xor_equal&lt;/div&gt;" style="ellipse;whiteSpace=wrap;html=1;aspect=fixed;strokeColor=#00FF00;" parent="1" vertex="1">
          <mxGeometry x="680" y="487" width="80" height="80" as="geometry" />
        </mxCell>
        <mxCell id="ShSS7NOWxWKPyYZwDJwW-97" style="edgeStyle=orthogonalEdgeStyle;rounded=0;orthogonalLoop=1;jettySize=auto;html=1;exitX=1;exitY=0.5;exitDx=0;exitDy=0;curved=1;entryX=1;entryY=0.5;entryDx=0;entryDy=0;" parent="1" source="ShSS7NOWxWKPyYZwDJwW-107" target="ShSS7NOWxWKPyYZwDJwW-107" edge="1">
          <mxGeometry relative="1" as="geometry">
            <mxPoint x="448" y="-30" as="targetPoint" />
            <Array as="points">
              <mxPoint x="374" y="55" />
              <mxPoint x="449" y="55" />
              <mxPoint x="449" y="-30" />
              <mxPoint x="374" y="-30" />
            </Array>
          </mxGeometry>
        </mxCell>
        <mxCell id="ShSS7NOWxWKPyYZwDJwW-98" value="space&lt;div&gt;new line&lt;/div&gt;" style="edgeLabel;html=1;align=center;verticalAlign=middle;resizable=0;points=[];" parent="ShSS7NOWxWKPyYZwDJwW-97" vertex="1" connectable="0">
          <mxGeometry x="-0.0121" y="-3" relative="1" as="geometry">
            <mxPoint y="1" as="offset" />
          </mxGeometry>
        </mxCell>
        <mxCell id="ShSS7NOWxWKPyYZwDJwW-99" style="edgeStyle=orthogonalEdgeStyle;rounded=0;orthogonalLoop=1;jettySize=auto;html=1;exitX=1;exitY=1;exitDx=0;exitDy=0;entryX=0;entryY=0;entryDx=0;entryDy=0;curved=1;" parent="1" source="ShSS7NOWxWKPyYZwDJwW-107" target="ShSS7NOWxWKPyYZwDJwW-110" edge="1">
          <mxGeometry relative="1" as="geometry" />
        </mxCell>
        <mxCell id="ShSS7NOWxWKPyYZwDJwW-100" value="!" style="edgeLabel;html=1;align=center;verticalAlign=middle;resizable=0;points=[];" parent="ShSS7NOWxWKPyYZwDJwW-99" vertex="1" connectable="0">
          <mxGeometry x="-0.2569" y="-13" relative="1" as="geometry">
            <mxPoint as="offset" />
          </mxGeometry>
        </mxCell>
        <mxCell id="ShSS7NOWxWKPyYZwDJwW-101" style="edgeStyle=orthogonalEdgeStyle;rounded=0;orthogonalLoop=1;jettySize=auto;html=1;exitX=0.5;exitY=1;exitDx=0;exitDy=0;entryX=0.5;entryY=0;entryDx=0;entryDy=0;curved=1;" parent="1" source="ShSS7NOWxWKPyYZwDJwW-107" target="ShSS7NOWxWKPyYZwDJwW-114" edge="1">
          <mxGeometry relative="1" as="geometry" />
        </mxCell>
        <mxCell id="ShSS7NOWxWKPyYZwDJwW-102" value="&amp;gt;" style="edgeLabel;html=1;align=center;verticalAlign=middle;resizable=0;points=[];" parent="ShSS7NOWxWKPyYZwDJwW-101" vertex="1" connectable="0">
          <mxGeometry x="0.0576" y="2" relative="1" as="geometry">
            <mxPoint as="offset" />
          </mxGeometry>
        </mxCell>
        <mxCell id="ShSS7NOWxWKPyYZwDJwW-103" style="edgeStyle=orthogonalEdgeStyle;rounded=0;orthogonalLoop=1;jettySize=auto;html=1;exitX=0.5;exitY=1;exitDx=0;exitDy=0;entryX=0.5;entryY=0;entryDx=0;entryDy=0;curved=1;" parent="1" source="ShSS7NOWxWKPyYZwDJwW-107" target="ShSS7NOWxWKPyYZwDJwW-118" edge="1">
          <mxGeometry relative="1" as="geometry" />
        </mxCell>
        <mxCell id="ShSS7NOWxWKPyYZwDJwW-104" value="&amp;lt;" style="edgeLabel;html=1;align=center;verticalAlign=middle;resizable=0;points=[];" parent="ShSS7NOWxWKPyYZwDJwW-103" vertex="1" connectable="0">
          <mxGeometry x="-0.0303" relative="1" as="geometry">
            <mxPoint as="offset" />
          </mxGeometry>
        </mxCell>
        <mxCell id="ShSS7NOWxWKPyYZwDJwW-105" style="edgeStyle=orthogonalEdgeStyle;rounded=0;orthogonalLoop=1;jettySize=auto;html=1;exitX=0;exitY=0.5;exitDx=0;exitDy=0;entryX=1;entryY=0.5;entryDx=0;entryDy=0;elbow=vertical;curved=1;" parent="1" source="ShSS7NOWxWKPyYZwDJwW-107" target="ShSS7NOWxWKPyYZwDJwW-122" edge="1">
          <mxGeometry relative="1" as="geometry" />
        </mxCell>
        <mxCell id="ShSS7NOWxWKPyYZwDJwW-106" value="~" style="edgeLabel;html=1;align=center;verticalAlign=middle;resizable=0;points=[];" parent="ShSS7NOWxWKPyYZwDJwW-105" vertex="1" connectable="0">
          <mxGeometry x="-0.0737" relative="1" as="geometry">
            <mxPoint as="offset" />
          </mxGeometry>
        </mxCell>
        <mxCell id="ShSS7NOWxWKPyYZwDJwW-107" value="q0" style="ellipse;whiteSpace=wrap;html=1;aspect=fixed;" parent="1" vertex="1">
          <mxGeometry x="294" y="-16" width="80" height="80" as="geometry" />
        </mxCell>
        <mxCell id="ShSS7NOWxWKPyYZwDJwW-108" style="edgeStyle=orthogonalEdgeStyle;rounded=0;orthogonalLoop=1;jettySize=auto;html=1;exitX=1;exitY=0;exitDx=0;exitDy=0;entryX=0;entryY=1;entryDx=0;entryDy=0;curved=1;" parent="1" source="ShSS7NOWxWKPyYZwDJwW-110" target="ShSS7NOWxWKPyYZwDJwW-111" edge="1">
          <mxGeometry relative="1" as="geometry" />
        </mxCell>
        <mxCell id="ShSS7NOWxWKPyYZwDJwW-109" value="=" style="edgeLabel;html=1;align=center;verticalAlign=middle;resizable=0;points=[];" parent="ShSS7NOWxWKPyYZwDJwW-108" vertex="1" connectable="0">
          <mxGeometry x="-0.3826" y="3" relative="1" as="geometry">
            <mxPoint as="offset" />
          </mxGeometry>
        </mxCell>
        <mxCell id="ShSS7NOWxWKPyYZwDJwW-110" value="q32&lt;div&gt;NOT&lt;/div&gt;" style="ellipse;whiteSpace=wrap;html=1;aspect=fixed;strokeColor=#00FF00;" parent="1" vertex="1">
          <mxGeometry x="401" y="84" width="80" height="80" as="geometry" />
        </mxCell>
        <mxCell id="ShSS7NOWxWKPyYZwDJwW-111" value="q33&lt;div&gt;not_equal&lt;/div&gt;" style="ellipse;whiteSpace=wrap;html=1;aspect=fixed;strokeColor=#00FF00;" parent="1" vertex="1">
          <mxGeometry x="500" y="-16" width="80" height="80" as="geometry" />
        </mxCell>
        <mxCell id="ShSS7NOWxWKPyYZwDJwW-112" style="edgeStyle=orthogonalEdgeStyle;rounded=0;orthogonalLoop=1;jettySize=auto;html=1;exitX=1;exitY=1;exitDx=0;exitDy=0;entryX=0.5;entryY=0;entryDx=0;entryDy=0;curved=1;" parent="1" source="ShSS7NOWxWKPyYZwDJwW-114" target="ShSS7NOWxWKPyYZwDJwW-115" edge="1">
          <mxGeometry relative="1" as="geometry" />
        </mxCell>
        <mxCell id="ShSS7NOWxWKPyYZwDJwW-113" value="=" style="edgeLabel;html=1;align=center;verticalAlign=middle;resizable=0;points=[];" parent="ShSS7NOWxWKPyYZwDJwW-112" vertex="1" connectable="0">
          <mxGeometry x="-0.296" y="-2" relative="1" as="geometry">
            <mxPoint as="offset" />
          </mxGeometry>
        </mxCell>
        <mxCell id="ShSS7NOWxWKPyYZwDJwW-114" value="q34&lt;div&gt;greater&lt;/div&gt;" style="ellipse;whiteSpace=wrap;html=1;aspect=fixed;strokeColor=#00FF00;" parent="1" vertex="1">
          <mxGeometry x="321" y="138" width="80" height="80" as="geometry" />
        </mxCell>
        <mxCell id="ShSS7NOWxWKPyYZwDJwW-115" value="q35&lt;div&gt;greater_equal&lt;/div&gt;" style="ellipse;whiteSpace=wrap;html=1;aspect=fixed;strokeColor=#00FF00;" parent="1" vertex="1">
          <mxGeometry x="409" y="249" width="80" height="80" as="geometry" />
        </mxCell>
        <mxCell id="ShSS7NOWxWKPyYZwDJwW-116" style="edgeStyle=orthogonalEdgeStyle;rounded=0;orthogonalLoop=1;jettySize=auto;html=1;exitX=0.5;exitY=1;exitDx=0;exitDy=0;entryX=0.5;entryY=0;entryDx=0;entryDy=0;curved=1;" parent="1" source="ShSS7NOWxWKPyYZwDJwW-118" target="ShSS7NOWxWKPyYZwDJwW-119" edge="1">
          <mxGeometry relative="1" as="geometry" />
        </mxCell>
        <mxCell id="ShSS7NOWxWKPyYZwDJwW-117" value="=" style="edgeLabel;html=1;align=center;verticalAlign=middle;resizable=0;points=[];" parent="ShSS7NOWxWKPyYZwDJwW-116" vertex="1" connectable="0">
          <mxGeometry x="0.0476" y="1" relative="1" as="geometry">
            <mxPoint as="offset" />
          </mxGeometry>
        </mxCell>
        <mxCell id="ShSS7NOWxWKPyYZwDJwW-118" value="q36&lt;div&gt;less&lt;/div&gt;" style="ellipse;whiteSpace=wrap;html=1;aspect=fixed;strokeColor=#00FF00;" parent="1" vertex="1">
          <mxGeometry x="236" y="111" width="80" height="80" as="geometry" />
        </mxCell>
        <mxCell id="ShSS7NOWxWKPyYZwDJwW-119" value="q37&lt;div&gt;less_equal&lt;/div&gt;" style="ellipse;whiteSpace=wrap;html=1;aspect=fixed;strokeColor=#00FF00;" parent="1" vertex="1">
          <mxGeometry x="275" y="229" width="80" height="80" as="geometry" />
        </mxCell>
        <mxCell id="ShSS7NOWxWKPyYZwDJwW-120" style="edgeStyle=orthogonalEdgeStyle;rounded=0;orthogonalLoop=1;jettySize=auto;html=1;exitX=0.5;exitY=1;exitDx=0;exitDy=0;entryX=0.5;entryY=0;entryDx=0;entryDy=0;curved=1;" parent="1" source="ShSS7NOWxWKPyYZwDJwW-122" target="ShSS7NOWxWKPyYZwDJwW-123" edge="1">
          <mxGeometry relative="1" as="geometry">
            <Array as="points">
              <mxPoint x="196" y="114" />
              <mxPoint x="158" y="114" />
            </Array>
          </mxGeometry>
        </mxCell>
        <mxCell id="ShSS7NOWxWKPyYZwDJwW-121" value="=" style="edgeLabel;html=1;align=center;verticalAlign=middle;resizable=0;points=[];" parent="ShSS7NOWxWKPyYZwDJwW-120" vertex="1" connectable="0">
          <mxGeometry x="-0.1323" y="-1" relative="1" as="geometry">
            <mxPoint as="offset" />
          </mxGeometry>
        </mxCell>
        <mxCell id="ShSS7NOWxWKPyYZwDJwW-122" value="q38&lt;div&gt;bitwise_not&lt;/div&gt;" style="ellipse;whiteSpace=wrap;html=1;aspect=fixed;strokeColor=#00FF00;" parent="1" vertex="1">
          <mxGeometry x="156" y="21" width="80" height="80" as="geometry" />
        </mxCell>
        <mxCell id="ShSS7NOWxWKPyYZwDJwW-123" value="q39&lt;div&gt;bitwise_not_equal&lt;/div&gt;" style="ellipse;whiteSpace=wrap;html=1;aspect=fixed;strokeColor=#00FF00;" parent="1" vertex="1">
          <mxGeometry x="118" y="126" width="80" height="80" as="geometry" />
        </mxCell>
        <mxCell id="ShSS7NOWxWKPyYZwDJwW-124" style="edgeStyle=orthogonalEdgeStyle;rounded=0;orthogonalLoop=1;jettySize=auto;html=1;exitX=1;exitY=0.5;exitDx=0;exitDy=0;curved=1;entryX=1;entryY=0.5;entryDx=0;entryDy=0;" parent="1" source="ShSS7NOWxWKPyYZwDJwW-142" target="ShSS7NOWxWKPyYZwDJwW-142" edge="1">
          <mxGeometry relative="1" as="geometry">
            <mxPoint x="1954" y="733" as="targetPoint" />
            <Array as="points">
              <mxPoint x="1919" y="767" />
              <mxPoint x="1984" y="767" />
              <mxPoint x="1984" y="703" />
              <mxPoint x="1919" y="703" />
            </Array>
          </mxGeometry>
        </mxCell>
        <mxCell id="ShSS7NOWxWKPyYZwDJwW-125" value="space&lt;div&gt;new line&lt;/div&gt;" style="edgeLabel;html=1;align=center;verticalAlign=middle;resizable=0;points=[];" parent="ShSS7NOWxWKPyYZwDJwW-124" vertex="1" connectable="0">
          <mxGeometry x="-0.0155" relative="1" as="geometry">
            <mxPoint as="offset" />
          </mxGeometry>
        </mxCell>
        <mxCell id="ShSS7NOWxWKPyYZwDJwW-126" style="edgeStyle=orthogonalEdgeStyle;rounded=0;orthogonalLoop=1;jettySize=auto;html=1;entryX=0.5;entryY=0;entryDx=0;entryDy=0;curved=1;" parent="1" target="ShSS7NOWxWKPyYZwDJwW-149" edge="1">
          <mxGeometry relative="1" as="geometry">
            <mxPoint x="1907" y="767" as="sourcePoint" />
          </mxGeometry>
        </mxCell>
        <mxCell id="ShSS7NOWxWKPyYZwDJwW-127" value="i" style="edgeLabel;html=1;align=center;verticalAlign=middle;resizable=0;points=[];" parent="ShSS7NOWxWKPyYZwDJwW-126" vertex="1" connectable="0">
          <mxGeometry x="0.4828" y="-6" relative="1" as="geometry">
            <mxPoint as="offset" />
          </mxGeometry>
        </mxCell>
        <mxCell id="ShSS7NOWxWKPyYZwDJwW-128" style="edgeStyle=orthogonalEdgeStyle;rounded=0;orthogonalLoop=1;jettySize=auto;html=1;exitX=0.5;exitY=1;exitDx=0;exitDy=0;entryX=0.5;entryY=0;entryDx=0;entryDy=0;curved=1;" parent="1" source="ShSS7NOWxWKPyYZwDJwW-142" target="ShSS7NOWxWKPyYZwDJwW-168" edge="1">
          <mxGeometry relative="1" as="geometry" />
        </mxCell>
        <mxCell id="ShSS7NOWxWKPyYZwDJwW-129" value="c" style="edgeLabel;html=1;align=center;verticalAlign=middle;resizable=0;points=[];" parent="ShSS7NOWxWKPyYZwDJwW-128" vertex="1" connectable="0">
          <mxGeometry x="-0.0979" y="-3" relative="1" as="geometry">
            <mxPoint as="offset" />
          </mxGeometry>
        </mxCell>
        <mxCell id="ShSS7NOWxWKPyYZwDJwW-130" style="edgeStyle=orthogonalEdgeStyle;rounded=0;orthogonalLoop=1;jettySize=auto;html=1;exitX=0.5;exitY=1;exitDx=0;exitDy=0;entryX=1;entryY=0;entryDx=0;entryDy=0;curved=1;" parent="1" source="ShSS7NOWxWKPyYZwDJwW-142" target="ShSS7NOWxWKPyYZwDJwW-189" edge="1">
          <mxGeometry relative="1" as="geometry" />
        </mxCell>
        <mxCell id="ShSS7NOWxWKPyYZwDJwW-131" value="v" style="edgeLabel;html=1;align=center;verticalAlign=middle;resizable=0;points=[];" parent="ShSS7NOWxWKPyYZwDJwW-130" vertex="1" connectable="0">
          <mxGeometry x="0.0201" y="4" relative="1" as="geometry">
            <mxPoint as="offset" />
          </mxGeometry>
        </mxCell>
        <mxCell id="ShSS7NOWxWKPyYZwDJwW-132" style="edgeStyle=orthogonalEdgeStyle;rounded=0;orthogonalLoop=1;jettySize=auto;html=1;exitX=0;exitY=1;exitDx=0;exitDy=0;entryX=1;entryY=0.5;entryDx=0;entryDy=0;curved=1;" parent="1" source="ShSS7NOWxWKPyYZwDJwW-142" target="ShSS7NOWxWKPyYZwDJwW-210" edge="1">
          <mxGeometry relative="1" as="geometry" />
        </mxCell>
        <mxCell id="ShSS7NOWxWKPyYZwDJwW-133" value="f" style="edgeLabel;html=1;align=center;verticalAlign=middle;resizable=0;points=[];" parent="ShSS7NOWxWKPyYZwDJwW-132" vertex="1" connectable="0">
          <mxGeometry x="-0.2919" y="5" relative="1" as="geometry">
            <mxPoint as="offset" />
          </mxGeometry>
        </mxCell>
        <mxCell id="ShSS7NOWxWKPyYZwDJwW-134" style="edgeStyle=orthogonalEdgeStyle;rounded=0;orthogonalLoop=1;jettySize=auto;html=1;exitX=0;exitY=0.5;exitDx=0;exitDy=0;entryX=1;entryY=1;entryDx=0;entryDy=0;curved=1;" parent="1" source="ShSS7NOWxWKPyYZwDJwW-142" target="ShSS7NOWxWKPyYZwDJwW-226" edge="1">
          <mxGeometry relative="1" as="geometry" />
        </mxCell>
        <mxCell id="ShSS7NOWxWKPyYZwDJwW-135" value="e" style="edgeLabel;html=1;align=center;verticalAlign=middle;resizable=0;points=[];" parent="ShSS7NOWxWKPyYZwDJwW-134" vertex="1" connectable="0">
          <mxGeometry x="0.1398" y="3" relative="1" as="geometry">
            <mxPoint as="offset" />
          </mxGeometry>
        </mxCell>
        <mxCell id="ShSS7NOWxWKPyYZwDJwW-136" style="edgeStyle=orthogonalEdgeStyle;rounded=0;orthogonalLoop=1;jettySize=auto;html=1;exitX=0;exitY=0;exitDx=0;exitDy=0;entryX=0.5;entryY=1;entryDx=0;entryDy=0;fontSize=12;startSize=8;endSize=8;curved=1;" parent="1" source="ShSS7NOWxWKPyYZwDJwW-142" target="ShSS7NOWxWKPyYZwDJwW-247" edge="1">
          <mxGeometry relative="1" as="geometry" />
        </mxCell>
        <mxCell id="ShSS7NOWxWKPyYZwDJwW-137" value="w" style="edgeLabel;html=1;align=center;verticalAlign=middle;resizable=0;points=[];fontSize=12;" parent="ShSS7NOWxWKPyYZwDJwW-136" vertex="1" connectable="0">
          <mxGeometry x="-0.1389" y="5" relative="1" as="geometry">
            <mxPoint as="offset" />
          </mxGeometry>
        </mxCell>
        <mxCell id="ShSS7NOWxWKPyYZwDJwW-138" style="edgeStyle=orthogonalEdgeStyle;curved=1;rounded=0;orthogonalLoop=1;jettySize=auto;html=1;exitX=1;exitY=0;exitDx=0;exitDy=0;entryX=0;entryY=0.5;entryDx=0;entryDy=0;fontSize=12;startSize=8;endSize=8;" parent="1" source="ShSS7NOWxWKPyYZwDJwW-142" target="ShSS7NOWxWKPyYZwDJwW-273" edge="1">
          <mxGeometry relative="1" as="geometry">
            <Array as="points">
              <mxPoint x="1907.3333129882812" y="676" />
            </Array>
          </mxGeometry>
        </mxCell>
        <mxCell id="ShSS7NOWxWKPyYZwDJwW-139" value="r" style="edgeLabel;html=1;align=center;verticalAlign=middle;resizable=0;points=[];fontSize=12;" parent="ShSS7NOWxWKPyYZwDJwW-138" vertex="1" connectable="0">
          <mxGeometry x="0.143" y="-5" relative="1" as="geometry">
            <mxPoint as="offset" />
          </mxGeometry>
        </mxCell>
        <mxCell id="ShSS7NOWxWKPyYZwDJwW-140" style="edgeStyle=orthogonalEdgeStyle;curved=1;rounded=0;orthogonalLoop=1;jettySize=auto;html=1;exitX=0.5;exitY=0;exitDx=0;exitDy=0;entryX=0.5;entryY=1;entryDx=0;entryDy=0;fontSize=12;startSize=8;endSize=8;" parent="1" source="ShSS7NOWxWKPyYZwDJwW-142" target="ShSS7NOWxWKPyYZwDJwW-302" edge="1">
          <mxGeometry relative="1" as="geometry" />
        </mxCell>
        <mxCell id="ShSS7NOWxWKPyYZwDJwW-141" value="&lt;span style=&quot;font-size: 11px;&quot;&gt;[a-z&lt;/span&gt;&lt;span style=&quot;color: light-dark(rgb(0, 0, 0), rgb(255, 255, 255)); font-size: 11px;&quot;&gt;]&lt;/span&gt;&lt;div style=&quot;font-size: 11px;&quot;&gt;&lt;span style=&quot;color: light-dark(rgb(0, 0, 0), rgb(255, 255, 255));&quot;&gt;[A-Z&lt;/span&gt;&lt;span style=&quot;color: light-dark(rgb(0, 0, 0), rgb(255, 255, 255));&quot;&gt;]&lt;/span&gt;&lt;/div&gt;" style="edgeLabel;html=1;align=center;verticalAlign=middle;resizable=0;points=[];fontSize=12;" parent="ShSS7NOWxWKPyYZwDJwW-140" vertex="1" connectable="0">
          <mxGeometry x="0.008" relative="1" as="geometry">
            <mxPoint x="-1" as="offset" />
          </mxGeometry>
        </mxCell>
        <mxCell id="ShSS7NOWxWKPyYZwDJwW-142" value="q0" style="ellipse;whiteSpace=wrap;html=1;aspect=fixed;" parent="1" vertex="1">
          <mxGeometry x="1839" y="699" width="80" height="80" as="geometry" />
        </mxCell>
        <mxCell id="ShSS7NOWxWKPyYZwDJwW-143" style="edgeStyle=orthogonalEdgeStyle;rounded=0;orthogonalLoop=1;jettySize=auto;html=1;exitX=1;exitY=0.5;exitDx=0;exitDy=0;entryX=0;entryY=0.5;entryDx=0;entryDy=0;curved=1;" parent="1" source="ShSS7NOWxWKPyYZwDJwW-149" target="ShSS7NOWxWKPyYZwDJwW-154" edge="1">
          <mxGeometry relative="1" as="geometry" />
        </mxCell>
        <mxCell id="ShSS7NOWxWKPyYZwDJwW-144" value="n" style="edgeLabel;html=1;align=center;verticalAlign=middle;resizable=0;points=[];" parent="ShSS7NOWxWKPyYZwDJwW-143" vertex="1" connectable="0">
          <mxGeometry x="-0.0267" relative="1" as="geometry">
            <mxPoint as="offset" />
          </mxGeometry>
        </mxCell>
        <mxCell id="ShSS7NOWxWKPyYZwDJwW-145" style="edgeStyle=orthogonalEdgeStyle;rounded=0;orthogonalLoop=1;jettySize=auto;html=1;exitX=0.5;exitY=1;exitDx=0;exitDy=0;entryX=0.5;entryY=0;entryDx=0;entryDy=0;curved=1;" parent="1" source="ShSS7NOWxWKPyYZwDJwW-149" target="ShSS7NOWxWKPyYZwDJwW-163" edge="1">
          <mxGeometry relative="1" as="geometry" />
        </mxCell>
        <mxCell id="ShSS7NOWxWKPyYZwDJwW-146" value="f" style="edgeLabel;html=1;align=center;verticalAlign=middle;resizable=0;points=[];" parent="ShSS7NOWxWKPyYZwDJwW-145" vertex="1" connectable="0">
          <mxGeometry x="0.0141" y="3" relative="1" as="geometry">
            <mxPoint as="offset" />
          </mxGeometry>
        </mxCell>
        <mxCell id="ShSS7NOWxWKPyYZwDJwW-147" style="edgeStyle=orthogonalEdgeStyle;rounded=0;orthogonalLoop=1;jettySize=auto;html=1;exitX=1;exitY=0;exitDx=0;exitDy=0;entryX=0;entryY=0;entryDx=0;entryDy=0;curved=1;" parent="1" source="ShSS7NOWxWKPyYZwDJwW-149" target="ShSS7NOWxWKPyYZwDJwW-160" edge="1">
          <mxGeometry relative="1" as="geometry">
            <Array as="points">
              <mxPoint x="1994" y="793" />
              <mxPoint x="2328" y="793" />
            </Array>
          </mxGeometry>
        </mxCell>
        <mxCell id="ShSS7NOWxWKPyYZwDJwW-148" value="[a-z&lt;span style=&quot;color: light-dark(rgb(0, 0, 0), rgb(255, 255, 255));&quot;&gt;]&lt;/span&gt;&lt;div&gt;&lt;span style=&quot;color: light-dark(rgb(0, 0, 0), rgb(255, 255, 255));&quot;&gt;[A-Z&lt;/span&gt;&lt;span style=&quot;color: light-dark(rgb(0, 0, 0), rgb(255, 255, 255));&quot;&gt;]&lt;/span&gt;&lt;/div&gt;&lt;div&gt;&lt;span style=&quot;color: light-dark(rgb(0, 0, 0), rgb(255, 255, 255));&quot;&gt;[0-9]&lt;/span&gt;&lt;/div&gt;&lt;div&gt;{f,n}&lt;/div&gt;" style="edgeLabel;html=1;align=center;verticalAlign=middle;resizable=0;points=[];" parent="ShSS7NOWxWKPyYZwDJwW-147" vertex="1" connectable="0">
          <mxGeometry x="0.0134" y="1" relative="1" as="geometry">
            <mxPoint as="offset" />
          </mxGeometry>
        </mxCell>
        <mxCell id="ShSS7NOWxWKPyYZwDJwW-149" value="q40&lt;div&gt;identifier&lt;/div&gt;" style="ellipse;whiteSpace=wrap;html=1;aspect=fixed;strokeColor=#00FF00;" parent="1" vertex="1">
          <mxGeometry x="1926" y="813" width="80" height="80" as="geometry" />
        </mxCell>
        <mxCell id="ShSS7NOWxWKPyYZwDJwW-150" style="edgeStyle=orthogonalEdgeStyle;rounded=0;orthogonalLoop=1;jettySize=auto;html=1;exitX=1;exitY=0.5;exitDx=0;exitDy=0;entryX=0;entryY=0.5;entryDx=0;entryDy=0;curved=1;" parent="1" source="ShSS7NOWxWKPyYZwDJwW-154" target="ShSS7NOWxWKPyYZwDJwW-157" edge="1">
          <mxGeometry relative="1" as="geometry" />
        </mxCell>
        <mxCell id="ShSS7NOWxWKPyYZwDJwW-151" value="t" style="edgeLabel;html=1;align=center;verticalAlign=middle;resizable=0;points=[];" parent="ShSS7NOWxWKPyYZwDJwW-150" vertex="1" connectable="0">
          <mxGeometry x="-0.0267" relative="1" as="geometry">
            <mxPoint as="offset" />
          </mxGeometry>
        </mxCell>
        <mxCell id="ShSS7NOWxWKPyYZwDJwW-152" style="edgeStyle=orthogonalEdgeStyle;rounded=0;orthogonalLoop=1;jettySize=auto;html=1;exitX=1;exitY=1;exitDx=0;exitDy=0;entryX=0;entryY=1;entryDx=0;entryDy=0;curved=1;" parent="1" source="ShSS7NOWxWKPyYZwDJwW-154" target="ShSS7NOWxWKPyYZwDJwW-160" edge="1">
          <mxGeometry relative="1" as="geometry">
            <Array as="points">
              <mxPoint x="2124" y="923" />
              <mxPoint x="2328" y="923" />
            </Array>
          </mxGeometry>
        </mxCell>
        <mxCell id="ShSS7NOWxWKPyYZwDJwW-153" value="[a-z&lt;span style=&quot;color: light-dark(rgb(0, 0, 0), rgb(255, 255, 255));&quot;&gt;]&lt;/span&gt;&lt;div&gt;&lt;span style=&quot;color: light-dark(rgb(0, 0, 0), rgb(255, 255, 255));&quot;&gt;[A-Z&lt;/span&gt;&lt;span style=&quot;color: light-dark(rgb(0, 0, 0), rgb(255, 255, 255));&quot;&gt;]&lt;/span&gt;&lt;/div&gt;&lt;div&gt;&lt;span style=&quot;color: light-dark(rgb(0, 0, 0), rgb(255, 255, 255));&quot;&gt;[0-9]&lt;/span&gt;&lt;/div&gt;&lt;div&gt;{t}&lt;/div&gt;" style="edgeLabel;html=1;align=center;verticalAlign=middle;resizable=0;points=[];" parent="ShSS7NOWxWKPyYZwDJwW-152" vertex="1" connectable="0">
          <mxGeometry x="0.0133" y="1" relative="1" as="geometry">
            <mxPoint as="offset" />
          </mxGeometry>
        </mxCell>
        <mxCell id="ShSS7NOWxWKPyYZwDJwW-154" value="q41&lt;div&gt;identifier&lt;/div&gt;" style="ellipse;whiteSpace=wrap;html=1;aspect=fixed;strokeColor=#00FF00;" parent="1" vertex="1">
          <mxGeometry x="2056" y="813" width="80" height="80" as="geometry" />
        </mxCell>
        <mxCell id="ShSS7NOWxWKPyYZwDJwW-155" style="edgeStyle=orthogonalEdgeStyle;rounded=0;orthogonalLoop=1;jettySize=auto;html=1;exitX=1;exitY=0.5;exitDx=0;exitDy=0;entryX=0;entryY=0.5;entryDx=0;entryDy=0;curved=1;" parent="1" source="ShSS7NOWxWKPyYZwDJwW-157" target="ShSS7NOWxWKPyYZwDJwW-160" edge="1">
          <mxGeometry relative="1" as="geometry" />
        </mxCell>
        <mxCell id="ShSS7NOWxWKPyYZwDJwW-156" value="[a-z&lt;span style=&quot;background-color: light-dark(#ffffff, var(--ge-dark-color, #121212)); color: light-dark(rgb(0, 0, 0), rgb(255, 255, 255));&quot;&gt;]&lt;/span&gt;&lt;div&gt;&lt;span style=&quot;background-color: light-dark(#ffffff, var(--ge-dark-color, #121212)); color: light-dark(rgb(0, 0, 0), rgb(255, 255, 255));&quot;&gt;[A-Z&lt;/span&gt;&lt;span style=&quot;background-color: light-dark(#ffffff, var(--ge-dark-color, #121212)); color: light-dark(rgb(0, 0, 0), rgb(255, 255, 255));&quot;&gt;]&lt;/span&gt;&lt;/div&gt;&lt;div&gt;&lt;span style=&quot;background-color: light-dark(#ffffff, var(--ge-dark-color, #121212)); color: light-dark(rgb(0, 0, 0), rgb(255, 255, 255));&quot;&gt;[0-9]&lt;/span&gt;&lt;/div&gt;" style="edgeLabel;html=1;align=center;verticalAlign=middle;resizable=0;points=[];" parent="ShSS7NOWxWKPyYZwDJwW-155" vertex="1" connectable="0">
          <mxGeometry x="0.08" y="1" relative="1" as="geometry">
            <mxPoint x="-7" y="1" as="offset" />
          </mxGeometry>
        </mxCell>
        <mxCell id="ShSS7NOWxWKPyYZwDJwW-157" value="q42&lt;div&gt;INT&lt;/div&gt;" style="ellipse;whiteSpace=wrap;html=1;aspect=fixed;strokeColor=#00FF00;" parent="1" vertex="1">
          <mxGeometry x="2186" y="813" width="80" height="80" as="geometry" />
        </mxCell>
        <mxCell id="ShSS7NOWxWKPyYZwDJwW-158" style="edgeStyle=orthogonalEdgeStyle;rounded=0;orthogonalLoop=1;jettySize=auto;html=1;exitX=1;exitY=0.5;exitDx=0;exitDy=0;curved=1;" parent="1" source="ShSS7NOWxWKPyYZwDJwW-160" edge="1">
          <mxGeometry relative="1" as="geometry">
            <mxPoint x="2396" y="853" as="targetPoint" />
            <Array as="points">
              <mxPoint x="2396" y="816" />
              <mxPoint x="2443" y="816" />
              <mxPoint x="2443" y="853" />
            </Array>
          </mxGeometry>
        </mxCell>
        <mxCell id="ShSS7NOWxWKPyYZwDJwW-159" value="[a-z&lt;span style=&quot;color: light-dark(rgb(0, 0, 0), rgb(255, 255, 255));&quot;&gt;]&lt;/span&gt;&lt;div&gt;&lt;span style=&quot;color: light-dark(rgb(0, 0, 0), rgb(255, 255, 255));&quot;&gt;[A-Z&lt;/span&gt;&lt;span style=&quot;color: light-dark(rgb(0, 0, 0), rgb(255, 255, 255));&quot;&gt;]&lt;/span&gt;&lt;/div&gt;&lt;div&gt;&lt;span style=&quot;color: light-dark(rgb(0, 0, 0), rgb(255, 255, 255));&quot;&gt;[0-9]&lt;/span&gt;&lt;/div&gt;" style="edgeLabel;html=1;align=center;verticalAlign=middle;resizable=0;points=[];" parent="ShSS7NOWxWKPyYZwDJwW-158" vertex="1" connectable="0">
          <mxGeometry x="0.1865" relative="1" as="geometry">
            <mxPoint as="offset" />
          </mxGeometry>
        </mxCell>
        <mxCell id="ShSS7NOWxWKPyYZwDJwW-160" value="q43&lt;div&gt;identifier&lt;/div&gt;" style="ellipse;whiteSpace=wrap;html=1;aspect=fixed;strokeColor=#00FF00;" parent="1" vertex="1">
          <mxGeometry x="2316" y="813" width="80" height="80" as="geometry" />
        </mxCell>
        <mxCell id="ShSS7NOWxWKPyYZwDJwW-161" style="edgeStyle=orthogonalEdgeStyle;rounded=0;orthogonalLoop=1;jettySize=auto;html=1;exitX=1;exitY=0.5;exitDx=0;exitDy=0;entryX=0.5;entryY=1;entryDx=0;entryDy=0;curved=1;" parent="1" source="ShSS7NOWxWKPyYZwDJwW-163" target="ShSS7NOWxWKPyYZwDJwW-160" edge="1">
          <mxGeometry relative="1" as="geometry" />
        </mxCell>
        <mxCell id="ShSS7NOWxWKPyYZwDJwW-162" value="[a-z&lt;span style=&quot;color: light-dark(rgb(0, 0, 0), rgb(255, 255, 255));&quot;&gt;]&lt;/span&gt;&lt;div&gt;&lt;span style=&quot;color: light-dark(rgb(0, 0, 0), rgb(255, 255, 255));&quot;&gt;[A-Z&lt;/span&gt;&lt;span style=&quot;color: light-dark(rgb(0, 0, 0), rgb(255, 255, 255));&quot;&gt;]&lt;/span&gt;&lt;/div&gt;&lt;div&gt;&lt;span style=&quot;color: light-dark(rgb(0, 0, 0), rgb(255, 255, 255));&quot;&gt;[0-9]&lt;/span&gt;&lt;/div&gt;" style="edgeLabel;html=1;align=center;verticalAlign=middle;resizable=0;points=[];" parent="ShSS7NOWxWKPyYZwDJwW-161" vertex="1" connectable="0">
          <mxGeometry x="-0.3813" y="5" relative="1" as="geometry">
            <mxPoint as="offset" />
          </mxGeometry>
        </mxCell>
        <mxCell id="ShSS7NOWxWKPyYZwDJwW-163" value="q44&lt;div&gt;IF&lt;/div&gt;" style="ellipse;whiteSpace=wrap;html=1;aspect=fixed;strokeColor=#00FF00;" parent="1" vertex="1">
          <mxGeometry x="1962" y="928" width="80" height="80" as="geometry" />
        </mxCell>
        <mxCell id="ShSS7NOWxWKPyYZwDJwW-164" style="edgeStyle=orthogonalEdgeStyle;rounded=0;orthogonalLoop=1;jettySize=auto;html=1;exitX=0.5;exitY=1;exitDx=0;exitDy=0;entryX=0.5;entryY=0;entryDx=0;entryDy=0;curved=1;" parent="1" source="ShSS7NOWxWKPyYZwDJwW-168" target="ShSS7NOWxWKPyYZwDJwW-173" edge="1">
          <mxGeometry relative="1" as="geometry" />
        </mxCell>
        <mxCell id="ShSS7NOWxWKPyYZwDJwW-165" value="h" style="edgeLabel;html=1;align=center;verticalAlign=middle;resizable=0;points=[];" parent="ShSS7NOWxWKPyYZwDJwW-164" vertex="1" connectable="0">
          <mxGeometry x="0.001" y="5" relative="1" as="geometry">
            <mxPoint x="-1" as="offset" />
          </mxGeometry>
        </mxCell>
        <mxCell id="ShSS7NOWxWKPyYZwDJwW-166" style="edgeStyle=orthogonalEdgeStyle;rounded=0;orthogonalLoop=1;jettySize=auto;html=1;exitX=0;exitY=1;exitDx=0;exitDy=0;entryX=0;entryY=0;entryDx=0;entryDy=0;curved=1;" parent="1" source="ShSS7NOWxWKPyYZwDJwW-168" target="ShSS7NOWxWKPyYZwDJwW-184" edge="1">
          <mxGeometry relative="1" as="geometry">
            <Array as="points">
              <mxPoint x="1833" y="1159" />
            </Array>
          </mxGeometry>
        </mxCell>
        <mxCell id="ShSS7NOWxWKPyYZwDJwW-167" value="[a-z&lt;span style=&quot;color: light-dark(rgb(0, 0, 0), rgb(255, 255, 255));&quot;&gt;]&lt;/span&gt;&lt;div&gt;&lt;span style=&quot;color: light-dark(rgb(0, 0, 0), rgb(255, 255, 255));&quot;&gt;[A-Z&lt;/span&gt;&lt;span style=&quot;color: light-dark(rgb(0, 0, 0), rgb(255, 255, 255));&quot;&gt;]&lt;/span&gt;&lt;/div&gt;&lt;div&gt;&lt;span style=&quot;color: light-dark(rgb(0, 0, 0), rgb(255, 255, 255));&quot;&gt;[0-9]&lt;/span&gt;&lt;/div&gt;&lt;div&gt;{h}&lt;/div&gt;" style="edgeLabel;html=1;align=center;verticalAlign=middle;resizable=0;points=[];" parent="ShSS7NOWxWKPyYZwDJwW-166" vertex="1" connectable="0">
          <mxGeometry x="-0.3113" y="3" relative="1" as="geometry">
            <mxPoint as="offset" />
          </mxGeometry>
        </mxCell>
        <mxCell id="ShSS7NOWxWKPyYZwDJwW-168" value="q45&lt;div&gt;identifier&lt;/div&gt;" style="ellipse;whiteSpace=wrap;html=1;aspect=fixed;strokeColor=#00FF00;" parent="1" vertex="1">
          <mxGeometry x="1821" y="852" width="80" height="80" as="geometry" />
        </mxCell>
        <mxCell id="ShSS7NOWxWKPyYZwDJwW-169" style="rounded=0;orthogonalLoop=1;jettySize=auto;html=1;exitX=1;exitY=1;exitDx=0;exitDy=0;entryX=0;entryY=0.5;entryDx=0;entryDy=0;edgeStyle=orthogonalEdgeStyle;curved=1;" parent="1" source="ShSS7NOWxWKPyYZwDJwW-173" target="ShSS7NOWxWKPyYZwDJwW-178" edge="1">
          <mxGeometry relative="1" as="geometry" />
        </mxCell>
        <mxCell id="ShSS7NOWxWKPyYZwDJwW-170" value="a" style="edgeLabel;html=1;align=center;verticalAlign=middle;resizable=0;points=[];" parent="ShSS7NOWxWKPyYZwDJwW-169" vertex="1" connectable="0">
          <mxGeometry x="0.0671" y="-3" relative="1" as="geometry">
            <mxPoint y="1" as="offset" />
          </mxGeometry>
        </mxCell>
        <mxCell id="ShSS7NOWxWKPyYZwDJwW-171" style="edgeStyle=orthogonalEdgeStyle;rounded=0;orthogonalLoop=1;jettySize=auto;html=1;exitX=0.5;exitY=1;exitDx=0;exitDy=0;entryX=0.5;entryY=0;entryDx=0;entryDy=0;curved=1;" parent="1" source="ShSS7NOWxWKPyYZwDJwW-173" target="ShSS7NOWxWKPyYZwDJwW-184" edge="1">
          <mxGeometry relative="1" as="geometry" />
        </mxCell>
        <mxCell id="ShSS7NOWxWKPyYZwDJwW-172" value="[a-z&lt;span style=&quot;color: light-dark(rgb(0, 0, 0), rgb(255, 255, 255));&quot;&gt;]&lt;/span&gt;&lt;div&gt;&lt;span style=&quot;color: light-dark(rgb(0, 0, 0), rgb(255, 255, 255));&quot;&gt;[A-Z&lt;/span&gt;&lt;span style=&quot;color: light-dark(rgb(0, 0, 0), rgb(255, 255, 255));&quot;&gt;]&lt;/span&gt;&lt;/div&gt;&lt;div&gt;&lt;span style=&quot;color: light-dark(rgb(0, 0, 0), rgb(255, 255, 255));&quot;&gt;[0-9]&lt;/span&gt;&lt;/div&gt;&lt;div&gt;{a}&lt;/div&gt;" style="edgeLabel;html=1;align=center;verticalAlign=middle;resizable=0;points=[];" parent="ShSS7NOWxWKPyYZwDJwW-171" vertex="1" connectable="0">
          <mxGeometry x="-0.1843" relative="1" as="geometry">
            <mxPoint as="offset" />
          </mxGeometry>
        </mxCell>
        <mxCell id="ShSS7NOWxWKPyYZwDJwW-173" value="q46&lt;div&gt;identifier&lt;/div&gt;" style="ellipse;whiteSpace=wrap;html=1;aspect=fixed;strokeColor=#00FF00;" parent="1" vertex="1">
          <mxGeometry x="1882" y="986" width="80" height="80" as="geometry" />
        </mxCell>
        <mxCell id="ShSS7NOWxWKPyYZwDJwW-174" style="edgeStyle=orthogonalEdgeStyle;rounded=0;orthogonalLoop=1;jettySize=auto;html=1;exitX=1;exitY=0.5;exitDx=0;exitDy=0;entryX=0;entryY=0.5;entryDx=0;entryDy=0;curved=1;" parent="1" source="ShSS7NOWxWKPyYZwDJwW-178" target="ShSS7NOWxWKPyYZwDJwW-181" edge="1">
          <mxGeometry relative="1" as="geometry" />
        </mxCell>
        <mxCell id="ShSS7NOWxWKPyYZwDJwW-175" value="r" style="edgeLabel;html=1;align=center;verticalAlign=middle;resizable=0;points=[];" parent="ShSS7NOWxWKPyYZwDJwW-174" vertex="1" connectable="0">
          <mxGeometry x="0.0168" relative="1" as="geometry">
            <mxPoint as="offset" />
          </mxGeometry>
        </mxCell>
        <mxCell id="ShSS7NOWxWKPyYZwDJwW-176" style="edgeStyle=orthogonalEdgeStyle;rounded=0;orthogonalLoop=1;jettySize=auto;html=1;exitX=0;exitY=1;exitDx=0;exitDy=0;entryX=1;entryY=0;entryDx=0;entryDy=0;curved=1;" parent="1" source="ShSS7NOWxWKPyYZwDJwW-178" target="ShSS7NOWxWKPyYZwDJwW-184" edge="1">
          <mxGeometry relative="1" as="geometry" />
        </mxCell>
        <mxCell id="ShSS7NOWxWKPyYZwDJwW-177" value="[a-z&lt;span style=&quot;color: light-dark(rgb(0, 0, 0), rgb(255, 255, 255));&quot;&gt;]&lt;/span&gt;&lt;div&gt;&lt;span style=&quot;color: light-dark(rgb(0, 0, 0), rgb(255, 255, 255));&quot;&gt;[A-Z&lt;/span&gt;&lt;span style=&quot;color: light-dark(rgb(0, 0, 0), rgb(255, 255, 255));&quot;&gt;]&lt;/span&gt;&lt;/div&gt;&lt;div&gt;&lt;span style=&quot;color: light-dark(rgb(0, 0, 0), rgb(255, 255, 255));&quot;&gt;[0-9]&lt;/span&gt;&lt;/div&gt;&lt;div&gt;{r}&lt;/div&gt;" style="edgeLabel;html=1;align=center;verticalAlign=middle;resizable=0;points=[];" parent="ShSS7NOWxWKPyYZwDJwW-176" vertex="1" connectable="0">
          <mxGeometry x="-0.156" y="9" relative="1" as="geometry">
            <mxPoint as="offset" />
          </mxGeometry>
        </mxCell>
        <mxCell id="ShSS7NOWxWKPyYZwDJwW-178" value="q47&lt;div&gt;identifier&lt;/div&gt;" style="ellipse;whiteSpace=wrap;html=1;aspect=fixed;strokeColor=#00FF00;" parent="1" vertex="1">
          <mxGeometry x="2028" y="1035" width="80" height="80" as="geometry" />
        </mxCell>
        <mxCell id="ShSS7NOWxWKPyYZwDJwW-179" style="edgeStyle=orthogonalEdgeStyle;rounded=0;orthogonalLoop=1;jettySize=auto;html=1;exitX=0;exitY=1;exitDx=0;exitDy=0;entryX=1;entryY=0.5;entryDx=0;entryDy=0;curved=1;" parent="1" source="ShSS7NOWxWKPyYZwDJwW-181" target="ShSS7NOWxWKPyYZwDJwW-184" edge="1">
          <mxGeometry relative="1" as="geometry">
            <Array as="points">
              <mxPoint x="2186" y="1187" />
            </Array>
          </mxGeometry>
        </mxCell>
        <mxCell id="ShSS7NOWxWKPyYZwDJwW-180" value="[a-z&lt;span style=&quot;color: light-dark(rgb(0, 0, 0), rgb(255, 255, 255));&quot;&gt;]&lt;/span&gt;&lt;div&gt;&lt;span style=&quot;color: light-dark(rgb(0, 0, 0), rgb(255, 255, 255));&quot;&gt;[A-Z&lt;/span&gt;&lt;span style=&quot;color: light-dark(rgb(0, 0, 0), rgb(255, 255, 255));&quot;&gt;]&lt;/span&gt;&lt;/div&gt;&lt;div&gt;&lt;span style=&quot;color: light-dark(rgb(0, 0, 0), rgb(255, 255, 255));&quot;&gt;[0-9]&lt;/span&gt;&lt;/div&gt;" style="edgeLabel;html=1;align=center;verticalAlign=middle;resizable=0;points=[];" parent="ShSS7NOWxWKPyYZwDJwW-179" vertex="1" connectable="0">
          <mxGeometry x="0.1062" y="-9" relative="1" as="geometry">
            <mxPoint as="offset" />
          </mxGeometry>
        </mxCell>
        <mxCell id="ShSS7NOWxWKPyYZwDJwW-181" value="q48&lt;div&gt;CHAR&lt;/div&gt;" style="ellipse;whiteSpace=wrap;html=1;aspect=fixed;strokeColor=#00FF00;" parent="1" vertex="1">
          <mxGeometry x="2174" y="1035" width="80" height="80" as="geometry" />
        </mxCell>
        <mxCell id="ShSS7NOWxWKPyYZwDJwW-182" style="edgeStyle=orthogonalEdgeStyle;rounded=0;orthogonalLoop=1;jettySize=auto;html=1;exitX=0.5;exitY=1;exitDx=0;exitDy=0;curved=1;entryX=0.5;entryY=1;entryDx=0;entryDy=0;" parent="1" source="ShSS7NOWxWKPyYZwDJwW-184" target="ShSS7NOWxWKPyYZwDJwW-184" edge="1">
          <mxGeometry relative="1" as="geometry">
            <mxPoint x="1940" y="1278" as="targetPoint" />
            <Array as="points">
              <mxPoint x="1889" y="1227" />
              <mxPoint x="1889" y="1287" />
              <mxPoint x="1947" y="1287" />
              <mxPoint x="1947" y="1227" />
            </Array>
          </mxGeometry>
        </mxCell>
        <mxCell id="ShSS7NOWxWKPyYZwDJwW-183" value="[a-z&lt;span style=&quot;color: light-dark(rgb(0, 0, 0), rgb(255, 255, 255));&quot;&gt;]&lt;/span&gt;&lt;div&gt;&lt;span style=&quot;color: light-dark(rgb(0, 0, 0), rgb(255, 255, 255));&quot;&gt;[A-Z&lt;/span&gt;&lt;span style=&quot;color: light-dark(rgb(0, 0, 0), rgb(255, 255, 255));&quot;&gt;]&lt;/span&gt;&lt;/div&gt;&lt;div&gt;&lt;span style=&quot;color: light-dark(rgb(0, 0, 0), rgb(255, 255, 255));&quot;&gt;[0-9]&lt;/span&gt;&lt;/div&gt;" style="edgeLabel;html=1;align=center;verticalAlign=middle;resizable=0;points=[];" parent="ShSS7NOWxWKPyYZwDJwW-182" vertex="1" connectable="0">
          <mxGeometry x="0.0458" y="2" relative="1" as="geometry">
            <mxPoint as="offset" />
          </mxGeometry>
        </mxCell>
        <mxCell id="ShSS7NOWxWKPyYZwDJwW-184" value="q43&lt;div&gt;identifier&lt;/div&gt;" style="ellipse;whiteSpace=wrap;html=1;aspect=fixed;strokeColor=#00FF00;" parent="1" vertex="1">
          <mxGeometry x="1882" y="1147" width="80" height="80" as="geometry" />
        </mxCell>
        <mxCell id="ShSS7NOWxWKPyYZwDJwW-185" style="edgeStyle=orthogonalEdgeStyle;rounded=0;orthogonalLoop=1;jettySize=auto;html=1;exitX=0.5;exitY=1;exitDx=0;exitDy=0;entryX=0.5;entryY=0;entryDx=0;entryDy=0;curved=1;" parent="1" source="ShSS7NOWxWKPyYZwDJwW-189" target="ShSS7NOWxWKPyYZwDJwW-194" edge="1">
          <mxGeometry relative="1" as="geometry" />
        </mxCell>
        <mxCell id="ShSS7NOWxWKPyYZwDJwW-186" value="o" style="edgeLabel;html=1;align=center;verticalAlign=middle;resizable=0;points=[];" parent="ShSS7NOWxWKPyYZwDJwW-185" vertex="1" connectable="0">
          <mxGeometry x="-0.2072" relative="1" as="geometry">
            <mxPoint as="offset" />
          </mxGeometry>
        </mxCell>
        <mxCell id="ShSS7NOWxWKPyYZwDJwW-187" style="edgeStyle=orthogonalEdgeStyle;rounded=0;orthogonalLoop=1;jettySize=auto;html=1;exitX=0;exitY=1;exitDx=0;exitDy=0;entryX=0.5;entryY=0;entryDx=0;entryDy=0;curved=1;" parent="1" source="ShSS7NOWxWKPyYZwDJwW-189" target="ShSS7NOWxWKPyYZwDJwW-205" edge="1">
          <mxGeometry relative="1" as="geometry" />
        </mxCell>
        <mxCell id="ShSS7NOWxWKPyYZwDJwW-188" value="[a-z&lt;span style=&quot;color: light-dark(rgb(0, 0, 0), rgb(255, 255, 255));&quot;&gt;]&lt;/span&gt;&lt;div&gt;&lt;span style=&quot;color: light-dark(rgb(0, 0, 0), rgb(255, 255, 255));&quot;&gt;[A-Z&lt;/span&gt;&lt;span style=&quot;color: light-dark(rgb(0, 0, 0), rgb(255, 255, 255));&quot;&gt;]&lt;/span&gt;&lt;/div&gt;&lt;div&gt;&lt;span style=&quot;color: light-dark(rgb(0, 0, 0), rgb(255, 255, 255));&quot;&gt;[0-9]&lt;/span&gt;&lt;/div&gt;&lt;div&gt;{o}&lt;/div&gt;" style="edgeLabel;html=1;align=center;verticalAlign=middle;resizable=0;points=[];" parent="ShSS7NOWxWKPyYZwDJwW-187" vertex="1" connectable="0">
          <mxGeometry x="0.2874" y="19" relative="1" as="geometry">
            <mxPoint x="-1" y="1" as="offset" />
          </mxGeometry>
        </mxCell>
        <mxCell id="ShSS7NOWxWKPyYZwDJwW-189" value="q49&lt;div&gt;identifier&lt;/div&gt;" style="ellipse;whiteSpace=wrap;html=1;aspect=fixed;strokeColor=#00FF00;" parent="1" vertex="1">
          <mxGeometry x="1732" y="834" width="80" height="80" as="geometry" />
        </mxCell>
        <mxCell id="ShSS7NOWxWKPyYZwDJwW-190" style="edgeStyle=orthogonalEdgeStyle;rounded=0;orthogonalLoop=1;jettySize=auto;html=1;exitX=0.5;exitY=1;exitDx=0;exitDy=0;entryX=0.5;entryY=0;entryDx=0;entryDy=0;curved=1;" parent="1" source="ShSS7NOWxWKPyYZwDJwW-194" target="ShSS7NOWxWKPyYZwDJwW-199" edge="1">
          <mxGeometry relative="1" as="geometry" />
        </mxCell>
        <mxCell id="ShSS7NOWxWKPyYZwDJwW-191" value="i" style="edgeLabel;html=1;align=center;verticalAlign=middle;resizable=0;points=[];" parent="ShSS7NOWxWKPyYZwDJwW-190" vertex="1" connectable="0">
          <mxGeometry x="-0.2407" relative="1" as="geometry">
            <mxPoint as="offset" />
          </mxGeometry>
        </mxCell>
        <mxCell id="ShSS7NOWxWKPyYZwDJwW-192" style="edgeStyle=orthogonalEdgeStyle;rounded=0;orthogonalLoop=1;jettySize=auto;html=1;exitX=0;exitY=0.5;exitDx=0;exitDy=0;entryX=1;entryY=0;entryDx=0;entryDy=0;curved=1;" parent="1" source="ShSS7NOWxWKPyYZwDJwW-194" target="ShSS7NOWxWKPyYZwDJwW-205" edge="1">
          <mxGeometry relative="1" as="geometry" />
        </mxCell>
        <mxCell id="ShSS7NOWxWKPyYZwDJwW-193" value="[a-z&lt;span style=&quot;color: light-dark(rgb(0, 0, 0), rgb(255, 255, 255));&quot;&gt;]&lt;/span&gt;&lt;div&gt;&lt;span style=&quot;color: light-dark(rgb(0, 0, 0), rgb(255, 255, 255));&quot;&gt;[A-Z&lt;/span&gt;&lt;span style=&quot;color: light-dark(rgb(0, 0, 0), rgb(255, 255, 255));&quot;&gt;]&lt;/span&gt;&lt;/div&gt;&lt;div&gt;&lt;span style=&quot;color: light-dark(rgb(0, 0, 0), rgb(255, 255, 255));&quot;&gt;[0-9]&lt;/span&gt;&lt;/div&gt;&lt;div&gt;{i}&lt;/div&gt;" style="edgeLabel;html=1;align=center;verticalAlign=middle;resizable=0;points=[];" parent="ShSS7NOWxWKPyYZwDJwW-192" vertex="1" connectable="0">
          <mxGeometry x="-0.2008" y="-2" relative="1" as="geometry">
            <mxPoint y="-1" as="offset" />
          </mxGeometry>
        </mxCell>
        <mxCell id="ShSS7NOWxWKPyYZwDJwW-194" value="q50&lt;div&gt;identifier&lt;/div&gt;" style="ellipse;whiteSpace=wrap;html=1;aspect=fixed;strokeColor=#00FF00;" parent="1" vertex="1">
          <mxGeometry x="1732" y="951" width="80" height="80" as="geometry" />
        </mxCell>
        <mxCell id="ShSS7NOWxWKPyYZwDJwW-195" style="edgeStyle=orthogonalEdgeStyle;rounded=0;orthogonalLoop=1;jettySize=auto;html=1;exitX=0.5;exitY=1;exitDx=0;exitDy=0;entryX=0.5;entryY=0;entryDx=0;entryDy=0;curved=1;" parent="1" source="ShSS7NOWxWKPyYZwDJwW-199" target="ShSS7NOWxWKPyYZwDJwW-202" edge="1">
          <mxGeometry relative="1" as="geometry" />
        </mxCell>
        <mxCell id="ShSS7NOWxWKPyYZwDJwW-196" value="d" style="edgeLabel;html=1;align=center;verticalAlign=middle;resizable=0;points=[];" parent="ShSS7NOWxWKPyYZwDJwW-195" vertex="1" connectable="0">
          <mxGeometry x="-0.2082" relative="1" as="geometry">
            <mxPoint as="offset" />
          </mxGeometry>
        </mxCell>
        <mxCell id="ShSS7NOWxWKPyYZwDJwW-197" style="edgeStyle=orthogonalEdgeStyle;rounded=0;orthogonalLoop=1;jettySize=auto;html=1;exitX=0;exitY=0.5;exitDx=0;exitDy=0;entryX=1;entryY=0.5;entryDx=0;entryDy=0;curved=1;" parent="1" source="ShSS7NOWxWKPyYZwDJwW-199" target="ShSS7NOWxWKPyYZwDJwW-205" edge="1">
          <mxGeometry relative="1" as="geometry" />
        </mxCell>
        <mxCell id="ShSS7NOWxWKPyYZwDJwW-198" value="[a-z&lt;span style=&quot;color: light-dark(rgb(0, 0, 0), rgb(255, 255, 255));&quot;&gt;]&lt;/span&gt;&lt;div&gt;&lt;span style=&quot;color: light-dark(rgb(0, 0, 0), rgb(255, 255, 255));&quot;&gt;[A-Z&lt;/span&gt;&lt;span style=&quot;color: light-dark(rgb(0, 0, 0), rgb(255, 255, 255));&quot;&gt;]&lt;/span&gt;&lt;/div&gt;&lt;div&gt;&lt;span style=&quot;color: light-dark(rgb(0, 0, 0), rgb(255, 255, 255));&quot;&gt;[0-9]&lt;/span&gt;&lt;/div&gt;&lt;div&gt;{d}&lt;/div&gt;" style="edgeLabel;html=1;align=center;verticalAlign=middle;resizable=0;points=[];" parent="ShSS7NOWxWKPyYZwDJwW-197" vertex="1" connectable="0">
          <mxGeometry x="-0.2439" relative="1" as="geometry">
            <mxPoint as="offset" />
          </mxGeometry>
        </mxCell>
        <mxCell id="ShSS7NOWxWKPyYZwDJwW-199" value="q51&lt;div&gt;identifier&lt;/div&gt;" style="ellipse;whiteSpace=wrap;html=1;aspect=fixed;strokeColor=#00FF00;" parent="1" vertex="1">
          <mxGeometry x="1732" y="1067" width="80" height="80" as="geometry" />
        </mxCell>
        <mxCell id="ShSS7NOWxWKPyYZwDJwW-200" style="edgeStyle=orthogonalEdgeStyle;rounded=0;orthogonalLoop=1;jettySize=auto;html=1;exitX=0;exitY=0;exitDx=0;exitDy=0;entryX=1;entryY=1;entryDx=0;entryDy=0;curved=1;" parent="1" source="ShSS7NOWxWKPyYZwDJwW-202" target="ShSS7NOWxWKPyYZwDJwW-205" edge="1">
          <mxGeometry relative="1" as="geometry" />
        </mxCell>
        <mxCell id="ShSS7NOWxWKPyYZwDJwW-201" value="[a-z&lt;span style=&quot;color: light-dark(rgb(0, 0, 0), rgb(255, 255, 255));&quot;&gt;]&lt;/span&gt;&lt;div&gt;&lt;span style=&quot;color: light-dark(rgb(0, 0, 0), rgb(255, 255, 255));&quot;&gt;[A-Z&lt;/span&gt;&lt;span style=&quot;color: light-dark(rgb(0, 0, 0), rgb(255, 255, 255));&quot;&gt;]&lt;/span&gt;&lt;/div&gt;&lt;div&gt;&lt;span style=&quot;color: light-dark(rgb(0, 0, 0), rgb(255, 255, 255));&quot;&gt;[0-9]&lt;/span&gt;&lt;/div&gt;" style="edgeLabel;html=1;align=center;verticalAlign=middle;resizable=0;points=[];" parent="ShSS7NOWxWKPyYZwDJwW-200" vertex="1" connectable="0">
          <mxGeometry x="0.0776" y="-15" relative="1" as="geometry">
            <mxPoint as="offset" />
          </mxGeometry>
        </mxCell>
        <mxCell id="ShSS7NOWxWKPyYZwDJwW-202" value="q52&lt;div&gt;VOID&lt;/div&gt;" style="ellipse;whiteSpace=wrap;html=1;aspect=fixed;strokeColor=#00FF00;" parent="1" vertex="1">
          <mxGeometry x="1732" y="1183" width="80" height="80" as="geometry" />
        </mxCell>
        <mxCell id="ShSS7NOWxWKPyYZwDJwW-203" style="edgeStyle=orthogonalEdgeStyle;rounded=0;orthogonalLoop=1;jettySize=auto;html=1;exitX=0;exitY=0.5;exitDx=0;exitDy=0;curved=1;entryX=0;entryY=0.5;entryDx=0;entryDy=0;" parent="1" source="ShSS7NOWxWKPyYZwDJwW-205" target="ShSS7NOWxWKPyYZwDJwW-205" edge="1">
          <mxGeometry relative="1" as="geometry">
            <mxPoint x="1538" y="1146" as="targetPoint" />
            <Array as="points">
              <mxPoint x="1516" y="1038" />
              <mxPoint x="1516" y="1108" />
              <mxPoint x="1604" y="1108" />
              <mxPoint x="1604" y="1038" />
            </Array>
          </mxGeometry>
        </mxCell>
        <mxCell id="ShSS7NOWxWKPyYZwDJwW-204" value="[a-z&lt;span style=&quot;color: light-dark(rgb(0, 0, 0), rgb(255, 255, 255));&quot;&gt;]&lt;/span&gt;&lt;div&gt;&lt;span style=&quot;color: light-dark(rgb(0, 0, 0), rgb(255, 255, 255));&quot;&gt;[A-Z&lt;/span&gt;&lt;span style=&quot;color: light-dark(rgb(0, 0, 0), rgb(255, 255, 255));&quot;&gt;]&lt;/span&gt;&lt;/div&gt;&lt;div&gt;&lt;span style=&quot;color: light-dark(rgb(0, 0, 0), rgb(255, 255, 255));&quot;&gt;[0-9]&lt;/span&gt;&lt;/div&gt;" style="edgeLabel;html=1;align=center;verticalAlign=middle;resizable=0;points=[];" parent="ShSS7NOWxWKPyYZwDJwW-203" vertex="1" connectable="0">
          <mxGeometry x="0.1479" y="5" relative="1" as="geometry">
            <mxPoint as="offset" />
          </mxGeometry>
        </mxCell>
        <mxCell id="ShSS7NOWxWKPyYZwDJwW-205" value="q43&lt;div&gt;identifier&lt;/div&gt;" style="ellipse;whiteSpace=wrap;html=1;aspect=fixed;strokeColor=#00FF00;" parent="1" vertex="1">
          <mxGeometry x="1607" y="998" width="80" height="80" as="geometry" />
        </mxCell>
        <mxCell id="ShSS7NOWxWKPyYZwDJwW-206" style="edgeStyle=orthogonalEdgeStyle;rounded=0;orthogonalLoop=1;jettySize=auto;html=1;exitX=0;exitY=1;exitDx=0;exitDy=0;entryX=1;entryY=0;entryDx=0;entryDy=0;curved=1;" parent="1" source="ShSS7NOWxWKPyYZwDJwW-210" target="ShSS7NOWxWKPyYZwDJwW-215" edge="1">
          <mxGeometry relative="1" as="geometry" />
        </mxCell>
        <mxCell id="ShSS7NOWxWKPyYZwDJwW-207" value="o" style="edgeLabel;html=1;align=center;verticalAlign=middle;resizable=0;points=[];" parent="ShSS7NOWxWKPyYZwDJwW-206" vertex="1" connectable="0">
          <mxGeometry x="-0.2173" y="5" relative="1" as="geometry">
            <mxPoint as="offset" />
          </mxGeometry>
        </mxCell>
        <mxCell id="ShSS7NOWxWKPyYZwDJwW-208" style="edgeStyle=orthogonalEdgeStyle;rounded=0;orthogonalLoop=1;jettySize=auto;html=1;exitX=0;exitY=0.5;exitDx=0;exitDy=0;entryX=1;entryY=0;entryDx=0;entryDy=0;curved=1;" parent="1" source="ShSS7NOWxWKPyYZwDJwW-210" target="ShSS7NOWxWKPyYZwDJwW-221" edge="1">
          <mxGeometry relative="1" as="geometry">
            <Array as="points">
              <mxPoint x="1565" y="790" />
            </Array>
          </mxGeometry>
        </mxCell>
        <mxCell id="ShSS7NOWxWKPyYZwDJwW-209" value="[a-z&lt;span style=&quot;color: light-dark(rgb(0, 0, 0), rgb(255, 255, 255));&quot;&gt;]&lt;/span&gt;&lt;div&gt;&lt;span style=&quot;color: light-dark(rgb(0, 0, 0), rgb(255, 255, 255));&quot;&gt;[A-Z&lt;/span&gt;&lt;span style=&quot;color: light-dark(rgb(0, 0, 0), rgb(255, 255, 255));&quot;&gt;]&lt;/span&gt;&lt;/div&gt;&lt;div&gt;&lt;span style=&quot;color: light-dark(rgb(0, 0, 0), rgb(255, 255, 255));&quot;&gt;[0-9]&lt;/span&gt;&lt;/div&gt;&lt;div&gt;{o}&lt;/div&gt;" style="edgeLabel;html=1;align=center;verticalAlign=middle;resizable=0;points=[];" parent="ShSS7NOWxWKPyYZwDJwW-208" vertex="1" connectable="0">
          <mxGeometry x="0.074" y="3" relative="1" as="geometry">
            <mxPoint as="offset" />
          </mxGeometry>
        </mxCell>
        <mxCell id="ShSS7NOWxWKPyYZwDJwW-210" value="q53&lt;div&gt;identifier&lt;/div&gt;" style="ellipse;whiteSpace=wrap;html=1;aspect=fixed;strokeColor=#00FF00;" parent="1" vertex="1">
          <mxGeometry x="1713" y="750" width="80" height="80" as="geometry" />
        </mxCell>
        <mxCell id="ShSS7NOWxWKPyYZwDJwW-211" style="edgeStyle=orthogonalEdgeStyle;rounded=0;orthogonalLoop=1;jettySize=auto;html=1;exitX=0;exitY=1;exitDx=0;exitDy=0;entryX=1;entryY=0;entryDx=0;entryDy=0;curved=1;" parent="1" source="ShSS7NOWxWKPyYZwDJwW-215" target="ShSS7NOWxWKPyYZwDJwW-218" edge="1">
          <mxGeometry relative="1" as="geometry" />
        </mxCell>
        <mxCell id="ShSS7NOWxWKPyYZwDJwW-212" value="r" style="edgeLabel;html=1;align=center;verticalAlign=middle;resizable=0;points=[];" parent="ShSS7NOWxWKPyYZwDJwW-211" vertex="1" connectable="0">
          <mxGeometry x="0.2104" y="8" relative="1" as="geometry">
            <mxPoint y="-1" as="offset" />
          </mxGeometry>
        </mxCell>
        <mxCell id="ShSS7NOWxWKPyYZwDJwW-213" style="edgeStyle=orthogonalEdgeStyle;rounded=0;orthogonalLoop=1;jettySize=auto;html=1;exitX=0;exitY=0.5;exitDx=0;exitDy=0;entryX=1;entryY=0.5;entryDx=0;entryDy=0;curved=1;" parent="1" source="ShSS7NOWxWKPyYZwDJwW-215" target="ShSS7NOWxWKPyYZwDJwW-221" edge="1">
          <mxGeometry relative="1" as="geometry" />
        </mxCell>
        <mxCell id="ShSS7NOWxWKPyYZwDJwW-214" value="[a-z&lt;span style=&quot;color: light-dark(rgb(0, 0, 0), rgb(255, 255, 255));&quot;&gt;]&lt;/span&gt;&lt;div&gt;&lt;span style=&quot;color: light-dark(rgb(0, 0, 0), rgb(255, 255, 255));&quot;&gt;[A-Z&lt;/span&gt;&lt;span style=&quot;color: light-dark(rgb(0, 0, 0), rgb(255, 255, 255));&quot;&gt;]&lt;/span&gt;&lt;/div&gt;&lt;div&gt;&lt;span style=&quot;color: light-dark(rgb(0, 0, 0), rgb(255, 255, 255));&quot;&gt;[0-9]&lt;/span&gt;&lt;/div&gt;&lt;div&gt;{r}&lt;/div&gt;" style="edgeLabel;html=1;align=center;verticalAlign=middle;resizable=0;points=[];" parent="ShSS7NOWxWKPyYZwDJwW-213" vertex="1" connectable="0">
          <mxGeometry x="-0.2854" y="-2" relative="1" as="geometry">
            <mxPoint as="offset" />
          </mxGeometry>
        </mxCell>
        <mxCell id="ShSS7NOWxWKPyYZwDJwW-215" value="q54&lt;div&gt;identifier&lt;/div&gt;" style="ellipse;whiteSpace=wrap;html=1;aspect=fixed;strokeColor=#00FF00;" parent="1" vertex="1">
          <mxGeometry x="1607" y="820" width="80" height="80" as="geometry" />
        </mxCell>
        <mxCell id="ShSS7NOWxWKPyYZwDJwW-216" style="edgeStyle=orthogonalEdgeStyle;rounded=0;orthogonalLoop=1;jettySize=auto;html=1;exitX=0;exitY=0;exitDx=0;exitDy=0;entryX=1;entryY=1;entryDx=0;entryDy=0;curved=1;" parent="1" source="ShSS7NOWxWKPyYZwDJwW-218" target="ShSS7NOWxWKPyYZwDJwW-221" edge="1">
          <mxGeometry relative="1" as="geometry" />
        </mxCell>
        <mxCell id="ShSS7NOWxWKPyYZwDJwW-217" value="[a-z&lt;span style=&quot;color: light-dark(rgb(0, 0, 0), rgb(255, 255, 255));&quot;&gt;]&lt;/span&gt;&lt;div&gt;&lt;span style=&quot;color: light-dark(rgb(0, 0, 0), rgb(255, 255, 255));&quot;&gt;[A-Z&lt;/span&gt;&lt;span style=&quot;color: light-dark(rgb(0, 0, 0), rgb(255, 255, 255));&quot;&gt;]&lt;/span&gt;&lt;/div&gt;&lt;div&gt;&lt;span style=&quot;color: light-dark(rgb(0, 0, 0), rgb(255, 255, 255));&quot;&gt;[0-9]&lt;/span&gt;&lt;/div&gt;" style="edgeLabel;html=1;align=center;verticalAlign=middle;resizable=0;points=[];" parent="ShSS7NOWxWKPyYZwDJwW-216" vertex="1" connectable="0">
          <mxGeometry x="0.2609" y="-8" relative="1" as="geometry">
            <mxPoint as="offset" />
          </mxGeometry>
        </mxCell>
        <mxCell id="ShSS7NOWxWKPyYZwDJwW-218" value="q55&lt;div&gt;FOR&lt;/div&gt;" style="ellipse;whiteSpace=wrap;html=1;aspect=fixed;strokeColor=#00FF00;" parent="1" vertex="1">
          <mxGeometry x="1510" y="928" width="80" height="80" as="geometry" />
        </mxCell>
        <mxCell id="ShSS7NOWxWKPyYZwDJwW-219" style="edgeStyle=orthogonalEdgeStyle;rounded=0;orthogonalLoop=1;jettySize=auto;html=1;exitX=0;exitY=0.5;exitDx=0;exitDy=0;curved=1;entryX=0;entryY=0.5;entryDx=0;entryDy=0;" parent="1" source="ShSS7NOWxWKPyYZwDJwW-221" target="ShSS7NOWxWKPyYZwDJwW-221" edge="1">
          <mxGeometry relative="1" as="geometry">
            <mxPoint x="1349.7777826218378" y="859.952380952381" as="targetPoint" />
            <Array as="points">
              <mxPoint x="1411" y="833" />
              <mxPoint x="1350" y="833" />
              <mxPoint x="1350" y="868" />
              <mxPoint x="1411" y="868" />
            </Array>
          </mxGeometry>
        </mxCell>
        <mxCell id="ShSS7NOWxWKPyYZwDJwW-220" value="[a-z&lt;span style=&quot;color: light-dark(rgb(0, 0, 0), rgb(255, 255, 255));&quot;&gt;]&lt;/span&gt;&lt;div&gt;&lt;span style=&quot;color: light-dark(rgb(0, 0, 0), rgb(255, 255, 255));&quot;&gt;[A-Z&lt;/span&gt;&lt;span style=&quot;color: light-dark(rgb(0, 0, 0), rgb(255, 255, 255));&quot;&gt;]&lt;/span&gt;&lt;/div&gt;&lt;div&gt;&lt;span style=&quot;color: light-dark(rgb(0, 0, 0), rgb(255, 255, 255));&quot;&gt;[0-9]&lt;/span&gt;&lt;/div&gt;" style="edgeLabel;html=1;align=center;verticalAlign=middle;resizable=0;points=[];" parent="ShSS7NOWxWKPyYZwDJwW-219" vertex="1" connectable="0">
          <mxGeometry x="0.5661" y="1" relative="1" as="geometry">
            <mxPoint as="offset" />
          </mxGeometry>
        </mxCell>
        <mxCell id="ShSS7NOWxWKPyYZwDJwW-221" value="q43&lt;div&gt;identifier&lt;/div&gt;" style="ellipse;whiteSpace=wrap;html=1;aspect=fixed;strokeColor=#00FF00;" parent="1" vertex="1">
          <mxGeometry x="1411" y="820" width="80" height="80" as="geometry" />
        </mxCell>
        <mxCell id="ShSS7NOWxWKPyYZwDJwW-222" style="edgeStyle=orthogonalEdgeStyle;rounded=0;orthogonalLoop=1;jettySize=auto;html=1;exitX=0;exitY=1;exitDx=0;exitDy=0;entryX=1;entryY=0.5;entryDx=0;entryDy=0;curved=1;" parent="1" source="ShSS7NOWxWKPyYZwDJwW-226" target="ShSS7NOWxWKPyYZwDJwW-231" edge="1">
          <mxGeometry relative="1" as="geometry" />
        </mxCell>
        <mxCell id="ShSS7NOWxWKPyYZwDJwW-223" value="l" style="edgeLabel;html=1;align=center;verticalAlign=middle;resizable=0;points=[];" parent="ShSS7NOWxWKPyYZwDJwW-222" vertex="1" connectable="0">
          <mxGeometry x="-0.0978" y="-1" relative="1" as="geometry">
            <mxPoint as="offset" />
          </mxGeometry>
        </mxCell>
        <mxCell id="ShSS7NOWxWKPyYZwDJwW-224" style="edgeStyle=orthogonalEdgeStyle;rounded=0;orthogonalLoop=1;jettySize=auto;html=1;exitX=0;exitY=0.5;exitDx=0;exitDy=0;entryX=1;entryY=1;entryDx=0;entryDy=0;curved=1;" parent="1" source="ShSS7NOWxWKPyYZwDJwW-226" target="ShSS7NOWxWKPyYZwDJwW-242" edge="1">
          <mxGeometry relative="1" as="geometry">
            <mxPoint x="1553.284271247464" y="623.2842712474642" as="targetPoint" />
            <Array as="points">
              <mxPoint x="1721" y="651" />
              <mxPoint x="1553" y="651" />
            </Array>
          </mxGeometry>
        </mxCell>
        <mxCell id="ShSS7NOWxWKPyYZwDJwW-225" value="[a-z&lt;span style=&quot;color: light-dark(rgb(0, 0, 0), rgb(255, 255, 255));&quot;&gt;]&lt;/span&gt;&lt;div&gt;&lt;span style=&quot;color: light-dark(rgb(0, 0, 0), rgb(255, 255, 255));&quot;&gt;[A-Z&lt;/span&gt;&lt;span style=&quot;color: light-dark(rgb(0, 0, 0), rgb(255, 255, 255));&quot;&gt;]&lt;/span&gt;&lt;/div&gt;&lt;div&gt;&lt;span style=&quot;color: light-dark(rgb(0, 0, 0), rgb(255, 255, 255));&quot;&gt;[0-9]&lt;/span&gt;&lt;/div&gt;&lt;div&gt;{l}&lt;/div&gt;" style="edgeLabel;html=1;align=center;verticalAlign=middle;resizable=0;points=[];" parent="ShSS7NOWxWKPyYZwDJwW-224" vertex="1" connectable="0">
          <mxGeometry x="0.0976" y="1" relative="1" as="geometry">
            <mxPoint x="1" as="offset" />
          </mxGeometry>
        </mxCell>
        <mxCell id="ShSS7NOWxWKPyYZwDJwW-226" value="q56&lt;div&gt;identifier&lt;/div&gt;" style="ellipse;whiteSpace=wrap;html=1;aspect=fixed;strokeColor=#00FF00;" parent="1" vertex="1">
          <mxGeometry x="1721" y="661" width="80" height="80" as="geometry" />
        </mxCell>
        <mxCell id="ShSS7NOWxWKPyYZwDJwW-227" style="edgeStyle=orthogonalEdgeStyle;rounded=0;orthogonalLoop=1;jettySize=auto;html=1;exitX=0;exitY=0.5;exitDx=0;exitDy=0;entryX=1;entryY=1;entryDx=0;entryDy=0;curved=1;" parent="1" source="ShSS7NOWxWKPyYZwDJwW-231" target="ShSS7NOWxWKPyYZwDJwW-236" edge="1">
          <mxGeometry relative="1" as="geometry" />
        </mxCell>
        <mxCell id="ShSS7NOWxWKPyYZwDJwW-228" value="s" style="edgeLabel;html=1;align=center;verticalAlign=middle;resizable=0;points=[];" parent="ShSS7NOWxWKPyYZwDJwW-227" vertex="1" connectable="0">
          <mxGeometry x="-0.1072" y="2" relative="1" as="geometry">
            <mxPoint as="offset" />
          </mxGeometry>
        </mxCell>
        <mxCell id="ShSS7NOWxWKPyYZwDJwW-229" style="edgeStyle=orthogonalEdgeStyle;rounded=0;orthogonalLoop=1;jettySize=auto;html=1;exitX=0;exitY=0;exitDx=0;exitDy=0;entryX=0.5;entryY=1;entryDx=0;entryDy=0;curved=1;" parent="1" source="ShSS7NOWxWKPyYZwDJwW-231" target="ShSS7NOWxWKPyYZwDJwW-242" edge="1">
          <mxGeometry relative="1" as="geometry">
            <mxPoint x="1525" y="635.0000000000001" as="targetPoint" />
            <Array as="points">
              <mxPoint x="1617" y="677" />
              <mxPoint x="1526" y="677" />
              <mxPoint x="1526" y="637" />
            </Array>
          </mxGeometry>
        </mxCell>
        <mxCell id="ShSS7NOWxWKPyYZwDJwW-230" value="[a-z&lt;span style=&quot;color: light-dark(rgb(0, 0, 0), rgb(255, 255, 255));&quot;&gt;]&lt;/span&gt;&lt;div&gt;&lt;span style=&quot;color: light-dark(rgb(0, 0, 0), rgb(255, 255, 255));&quot;&gt;[A-Z&lt;/span&gt;&lt;span style=&quot;color: light-dark(rgb(0, 0, 0), rgb(255, 255, 255));&quot;&gt;]&lt;/span&gt;&lt;/div&gt;&lt;div&gt;&lt;span style=&quot;color: light-dark(rgb(0, 0, 0), rgb(255, 255, 255));&quot;&gt;[0-9]&lt;/span&gt;&lt;/div&gt;&lt;div&gt;{s}&lt;/div&gt;" style="edgeLabel;html=1;align=center;verticalAlign=middle;resizable=0;points=[];" parent="ShSS7NOWxWKPyYZwDJwW-229" vertex="1" connectable="0">
          <mxGeometry x="-0.3189" relative="1" as="geometry">
            <mxPoint as="offset" />
          </mxGeometry>
        </mxCell>
        <mxCell id="ShSS7NOWxWKPyYZwDJwW-231" value="q57&lt;div&gt;identifier&lt;/div&gt;" style="ellipse;whiteSpace=wrap;html=1;aspect=fixed;strokeColor=#00FF00;" parent="1" vertex="1">
          <mxGeometry x="1605" y="690" width="80" height="80" as="geometry" />
        </mxCell>
        <mxCell id="ShSS7NOWxWKPyYZwDJwW-232" style="edgeStyle=orthogonalEdgeStyle;rounded=0;orthogonalLoop=1;jettySize=auto;html=1;exitX=0;exitY=0.5;exitDx=0;exitDy=0;entryX=1;entryY=0.5;entryDx=0;entryDy=0;curved=1;" parent="1" source="ShSS7NOWxWKPyYZwDJwW-236" target="ShSS7NOWxWKPyYZwDJwW-239" edge="1">
          <mxGeometry relative="1" as="geometry" />
        </mxCell>
        <mxCell id="ShSS7NOWxWKPyYZwDJwW-233" value="e" style="edgeLabel;html=1;align=center;verticalAlign=middle;resizable=0;points=[];" parent="ShSS7NOWxWKPyYZwDJwW-232" vertex="1" connectable="0">
          <mxGeometry x="-0.0326" y="-1" relative="1" as="geometry">
            <mxPoint as="offset" />
          </mxGeometry>
        </mxCell>
        <mxCell id="ShSS7NOWxWKPyYZwDJwW-234" style="edgeStyle=orthogonalEdgeStyle;rounded=0;orthogonalLoop=1;jettySize=auto;html=1;exitX=0;exitY=0;exitDx=0;exitDy=0;entryX=0;entryY=1;entryDx=0;entryDy=0;curved=1;" parent="1" source="ShSS7NOWxWKPyYZwDJwW-236" target="ShSS7NOWxWKPyYZwDJwW-242" edge="1">
          <mxGeometry relative="1" as="geometry" />
        </mxCell>
        <mxCell id="ShSS7NOWxWKPyYZwDJwW-235" value="[a-z&lt;span style=&quot;color: light-dark(rgb(0, 0, 0), rgb(255, 255, 255));&quot;&gt;]&lt;/span&gt;&lt;div&gt;&lt;span style=&quot;color: light-dark(rgb(0, 0, 0), rgb(255, 255, 255));&quot;&gt;[A-Z&lt;/span&gt;&lt;span style=&quot;color: light-dark(rgb(0, 0, 0), rgb(255, 255, 255));&quot;&gt;]&lt;/span&gt;&lt;/div&gt;&lt;div&gt;&lt;span style=&quot;color: light-dark(rgb(0, 0, 0), rgb(255, 255, 255));&quot;&gt;[0-9]&lt;/span&gt;&lt;/div&gt;&lt;div&gt;{e}&lt;/div&gt;" style="edgeLabel;html=1;align=center;verticalAlign=middle;resizable=0;points=[];" parent="ShSS7NOWxWKPyYZwDJwW-234" vertex="1" connectable="0">
          <mxGeometry x="-0.032" y="2" relative="1" as="geometry">
            <mxPoint as="offset" />
          </mxGeometry>
        </mxCell>
        <mxCell id="ShSS7NOWxWKPyYZwDJwW-236" value="q58&lt;div&gt;identifier&lt;/div&gt;" style="ellipse;whiteSpace=wrap;html=1;aspect=fixed;strokeColor=#00FF00;" parent="1" vertex="1">
          <mxGeometry x="1497" y="682" width="80" height="80" as="geometry" />
        </mxCell>
        <mxCell id="ShSS7NOWxWKPyYZwDJwW-237" style="edgeStyle=orthogonalEdgeStyle;rounded=0;orthogonalLoop=1;jettySize=auto;html=1;exitX=0.5;exitY=0;exitDx=0;exitDy=0;entryX=0;entryY=0.5;entryDx=0;entryDy=0;curved=1;" parent="1" source="ShSS7NOWxWKPyYZwDJwW-239" target="ShSS7NOWxWKPyYZwDJwW-242" edge="1">
          <mxGeometry relative="1" as="geometry" />
        </mxCell>
        <mxCell id="ShSS7NOWxWKPyYZwDJwW-238" value="[a-z&lt;span style=&quot;color: light-dark(rgb(0, 0, 0), rgb(255, 255, 255));&quot;&gt;]&lt;/span&gt;&lt;div&gt;&lt;span style=&quot;color: light-dark(rgb(0, 0, 0), rgb(255, 255, 255));&quot;&gt;[A-Z&lt;/span&gt;&lt;span style=&quot;color: light-dark(rgb(0, 0, 0), rgb(255, 255, 255));&quot;&gt;]&lt;/span&gt;&lt;/div&gt;&lt;div&gt;&lt;span style=&quot;color: light-dark(rgb(0, 0, 0), rgb(255, 255, 255));&quot;&gt;[0-9]&lt;/span&gt;&lt;/div&gt;" style="edgeLabel;html=1;align=center;verticalAlign=middle;resizable=0;points=[];" parent="ShSS7NOWxWKPyYZwDJwW-237" vertex="1" connectable="0">
          <mxGeometry x="-0.1663" y="-14" relative="1" as="geometry">
            <mxPoint as="offset" />
          </mxGeometry>
        </mxCell>
        <mxCell id="ShSS7NOWxWKPyYZwDJwW-239" value="q59&lt;div&gt;ELSE&lt;/div&gt;" style="ellipse;whiteSpace=wrap;html=1;aspect=fixed;strokeColor=#00FF00;" parent="1" vertex="1">
          <mxGeometry x="1362" y="733" width="80" height="80" as="geometry" />
        </mxCell>
        <mxCell id="ShSS7NOWxWKPyYZwDJwW-240" style="edgeStyle=orthogonalEdgeStyle;rounded=0;orthogonalLoop=1;jettySize=auto;html=1;exitX=0.5;exitY=0;exitDx=0;exitDy=0;curved=1;entryX=0.5;entryY=0;entryDx=0;entryDy=0;" parent="1" source="ShSS7NOWxWKPyYZwDJwW-242" target="ShSS7NOWxWKPyYZwDJwW-242" edge="1">
          <mxGeometry relative="1" as="geometry">
            <mxPoint x="1593" y="536" as="targetPoint" />
            <Array as="points">
              <mxPoint x="1489" y="550" />
              <mxPoint x="1489" y="496" />
              <mxPoint x="1569" y="496" />
              <mxPoint x="1569" y="536" />
              <mxPoint x="1524" y="536" />
            </Array>
          </mxGeometry>
        </mxCell>
        <mxCell id="ShSS7NOWxWKPyYZwDJwW-241" value="[a-z&lt;span style=&quot;color: light-dark(rgb(0, 0, 0), rgb(255, 255, 255));&quot;&gt;]&lt;/span&gt;&lt;div&gt;&lt;span style=&quot;color: light-dark(rgb(0, 0, 0), rgb(255, 255, 255));&quot;&gt;[A-Z&lt;/span&gt;&lt;span style=&quot;color: light-dark(rgb(0, 0, 0), rgb(255, 255, 255));&quot;&gt;]&lt;/span&gt;&lt;/div&gt;&lt;div&gt;&lt;span style=&quot;color: light-dark(rgb(0, 0, 0), rgb(255, 255, 255));&quot;&gt;[0-9]&lt;/span&gt;&lt;/div&gt;" style="edgeLabel;html=1;align=center;verticalAlign=middle;resizable=0;points=[];" parent="ShSS7NOWxWKPyYZwDJwW-240" vertex="1" connectable="0">
          <mxGeometry x="-0.0581" y="-2" relative="1" as="geometry">
            <mxPoint as="offset" />
          </mxGeometry>
        </mxCell>
        <mxCell id="ShSS7NOWxWKPyYZwDJwW-242" value="q43&lt;div&gt;identifier&lt;/div&gt;" style="ellipse;whiteSpace=wrap;html=1;aspect=fixed;strokeColor=#00FF00;" parent="1" vertex="1">
          <mxGeometry x="1484" y="550" width="80" height="80" as="geometry" />
        </mxCell>
        <mxCell id="ShSS7NOWxWKPyYZwDJwW-243" style="edgeStyle=orthogonalEdgeStyle;curved=1;rounded=0;orthogonalLoop=1;jettySize=auto;html=1;exitX=0;exitY=0.5;exitDx=0;exitDy=0;entryX=1;entryY=0.5;entryDx=0;entryDy=0;fontSize=12;startSize=8;endSize=8;" parent="1" source="ShSS7NOWxWKPyYZwDJwW-247" target="ShSS7NOWxWKPyYZwDJwW-252" edge="1">
          <mxGeometry relative="1" as="geometry" />
        </mxCell>
        <mxCell id="ShSS7NOWxWKPyYZwDJwW-244" value="h" style="edgeLabel;html=1;align=center;verticalAlign=middle;resizable=0;points=[];fontSize=12;" parent="ShSS7NOWxWKPyYZwDJwW-243" vertex="1" connectable="0">
          <mxGeometry x="-0.1041" y="-2" relative="1" as="geometry">
            <mxPoint y="1" as="offset" />
          </mxGeometry>
        </mxCell>
        <mxCell id="ShSS7NOWxWKPyYZwDJwW-245" style="edgeStyle=orthogonalEdgeStyle;curved=1;rounded=0;orthogonalLoop=1;jettySize=auto;html=1;exitX=0;exitY=0;exitDx=0;exitDy=0;entryX=1;entryY=1;entryDx=0;entryDy=0;fontSize=12;startSize=8;endSize=8;" parent="1" source="ShSS7NOWxWKPyYZwDJwW-247" target="ShSS7NOWxWKPyYZwDJwW-268" edge="1">
          <mxGeometry relative="1" as="geometry" />
        </mxCell>
        <mxCell id="ShSS7NOWxWKPyYZwDJwW-246" value="&lt;span style=&quot;font-size: 11px;&quot;&gt;[a-z&lt;/span&gt;&lt;span style=&quot;color: light-dark(rgb(0, 0, 0), rgb(255, 255, 255)); font-size: 11px;&quot;&gt;]&lt;/span&gt;&lt;div style=&quot;font-size: 11px;&quot;&gt;&lt;span style=&quot;color: light-dark(rgb(0, 0, 0), rgb(255, 255, 255));&quot;&gt;[A-Z&lt;/span&gt;&lt;span style=&quot;color: light-dark(rgb(0, 0, 0), rgb(255, 255, 255));&quot;&gt;]&lt;/span&gt;&lt;/div&gt;&lt;div style=&quot;font-size: 11px;&quot;&gt;&lt;span style=&quot;color: light-dark(rgb(0, 0, 0), rgb(255, 255, 255));&quot;&gt;[0-9]&lt;/span&gt;&lt;/div&gt;&lt;div style=&quot;font-size: 11px;&quot;&gt;{h}&lt;/div&gt;" style="edgeLabel;html=1;align=center;verticalAlign=middle;resizable=0;points=[];fontSize=12;" parent="ShSS7NOWxWKPyYZwDJwW-245" vertex="1" connectable="0">
          <mxGeometry x="-0.1689" y="-3" relative="1" as="geometry">
            <mxPoint as="offset" />
          </mxGeometry>
        </mxCell>
        <mxCell id="ShSS7NOWxWKPyYZwDJwW-247" value="q60&lt;div&gt;identifier&lt;/div&gt;" style="ellipse;whiteSpace=wrap;html=1;aspect=fixed;strokeColor=#00FF00;" parent="1" vertex="1">
          <mxGeometry x="1770.3333129882812" y="579" width="80" height="80" as="geometry" />
        </mxCell>
        <mxCell id="ShSS7NOWxWKPyYZwDJwW-248" style="edgeStyle=orthogonalEdgeStyle;curved=1;rounded=0;orthogonalLoop=1;jettySize=auto;html=1;exitX=0;exitY=0;exitDx=0;exitDy=0;entryX=0.5;entryY=1;entryDx=0;entryDy=0;fontSize=12;startSize=8;endSize=8;" parent="1" source="ShSS7NOWxWKPyYZwDJwW-252" target="ShSS7NOWxWKPyYZwDJwW-257" edge="1">
          <mxGeometry relative="1" as="geometry" />
        </mxCell>
        <mxCell id="ShSS7NOWxWKPyYZwDJwW-249" value="i" style="edgeLabel;html=1;align=center;verticalAlign=middle;resizable=0;points=[];fontSize=12;" parent="ShSS7NOWxWKPyYZwDJwW-248" vertex="1" connectable="0">
          <mxGeometry x="-0.2952" y="-9" relative="1" as="geometry">
            <mxPoint as="offset" />
          </mxGeometry>
        </mxCell>
        <mxCell id="ShSS7NOWxWKPyYZwDJwW-250" style="edgeStyle=orthogonalEdgeStyle;curved=1;rounded=0;orthogonalLoop=1;jettySize=auto;html=1;exitX=0.5;exitY=0;exitDx=0;exitDy=0;entryX=0.5;entryY=1;entryDx=0;entryDy=0;fontSize=12;startSize=8;endSize=8;" parent="1" source="ShSS7NOWxWKPyYZwDJwW-252" target="ShSS7NOWxWKPyYZwDJwW-268" edge="1">
          <mxGeometry relative="1" as="geometry" />
        </mxCell>
        <mxCell id="ShSS7NOWxWKPyYZwDJwW-251" value="&lt;span style=&quot;font-size: 11px;&quot;&gt;[a-z&lt;/span&gt;&lt;span style=&quot;color: light-dark(rgb(0, 0, 0), rgb(255, 255, 255)); font-size: 11px;&quot;&gt;]&lt;/span&gt;&lt;div style=&quot;font-size: 11px;&quot;&gt;&lt;span style=&quot;color: light-dark(rgb(0, 0, 0), rgb(255, 255, 255));&quot;&gt;[A-Z&lt;/span&gt;&lt;span style=&quot;color: light-dark(rgb(0, 0, 0), rgb(255, 255, 255));&quot;&gt;]&lt;/span&gt;&lt;/div&gt;&lt;div style=&quot;font-size: 11px;&quot;&gt;&lt;span style=&quot;color: light-dark(rgb(0, 0, 0), rgb(255, 255, 255));&quot;&gt;[0-9]&lt;/span&gt;&lt;/div&gt;&lt;div style=&quot;font-size: 11px;&quot;&gt;{i}&lt;/div&gt;" style="edgeLabel;html=1;align=center;verticalAlign=middle;resizable=0;points=[];fontSize=12;" parent="ShSS7NOWxWKPyYZwDJwW-250" vertex="1" connectable="0">
          <mxGeometry x="-0.1607" y="-6" relative="1" as="geometry">
            <mxPoint as="offset" />
          </mxGeometry>
        </mxCell>
        <mxCell id="ShSS7NOWxWKPyYZwDJwW-252" value="q61&lt;div&gt;identifier&lt;/div&gt;" style="ellipse;whiteSpace=wrap;html=1;aspect=fixed;strokeColor=#00FF00;" parent="1" vertex="1">
          <mxGeometry x="1654.3333129882812" y="556" width="80" height="80" as="geometry" />
        </mxCell>
        <mxCell id="ShSS7NOWxWKPyYZwDJwW-253" style="edgeStyle=orthogonalEdgeStyle;curved=1;rounded=0;orthogonalLoop=1;jettySize=auto;html=1;exitX=0.5;exitY=0;exitDx=0;exitDy=0;entryX=0.5;entryY=1;entryDx=0;entryDy=0;fontSize=12;startSize=8;endSize=8;" parent="1" source="ShSS7NOWxWKPyYZwDJwW-257" target="ShSS7NOWxWKPyYZwDJwW-262" edge="1">
          <mxGeometry relative="1" as="geometry" />
        </mxCell>
        <mxCell id="ShSS7NOWxWKPyYZwDJwW-254" value="l" style="edgeLabel;html=1;align=center;verticalAlign=middle;resizable=0;points=[];fontSize=12;" parent="ShSS7NOWxWKPyYZwDJwW-253" vertex="1" connectable="0">
          <mxGeometry x="-0.1946" relative="1" as="geometry">
            <mxPoint as="offset" />
          </mxGeometry>
        </mxCell>
        <mxCell id="ShSS7NOWxWKPyYZwDJwW-255" style="edgeStyle=orthogonalEdgeStyle;curved=1;rounded=0;orthogonalLoop=1;jettySize=auto;html=1;exitX=1;exitY=0;exitDx=0;exitDy=0;entryX=0;entryY=1;entryDx=0;entryDy=0;fontSize=12;startSize=8;endSize=8;" parent="1" source="ShSS7NOWxWKPyYZwDJwW-257" target="ShSS7NOWxWKPyYZwDJwW-268" edge="1">
          <mxGeometry relative="1" as="geometry" />
        </mxCell>
        <mxCell id="ShSS7NOWxWKPyYZwDJwW-256" value="&lt;span style=&quot;font-size: 11px;&quot;&gt;[a-z&lt;/span&gt;&lt;span style=&quot;color: light-dark(rgb(0, 0, 0), rgb(255, 255, 255)); font-size: 11px;&quot;&gt;]&lt;/span&gt;&lt;div style=&quot;font-size: 11px;&quot;&gt;&lt;span style=&quot;color: light-dark(rgb(0, 0, 0), rgb(255, 255, 255));&quot;&gt;[A-Z&lt;/span&gt;&lt;span style=&quot;color: light-dark(rgb(0, 0, 0), rgb(255, 255, 255));&quot;&gt;]&lt;/span&gt;&lt;/div&gt;&lt;div style=&quot;font-size: 11px;&quot;&gt;&lt;span style=&quot;color: light-dark(rgb(0, 0, 0), rgb(255, 255, 255));&quot;&gt;[0-9]&lt;/span&gt;&lt;/div&gt;&lt;div style=&quot;font-size: 11px;&quot;&gt;{l}&lt;/div&gt;" style="edgeLabel;html=1;align=center;verticalAlign=middle;resizable=0;points=[];fontSize=12;" parent="ShSS7NOWxWKPyYZwDJwW-255" vertex="1" connectable="0">
          <mxGeometry x="-0.0047" y="3" relative="1" as="geometry">
            <mxPoint y="1" as="offset" />
          </mxGeometry>
        </mxCell>
        <mxCell id="ShSS7NOWxWKPyYZwDJwW-257" value="q62&lt;div&gt;identifier&lt;/div&gt;" style="ellipse;whiteSpace=wrap;html=1;aspect=fixed;strokeColor=#00FF00;" parent="1" vertex="1">
          <mxGeometry x="1568.3333129882812" y="443" width="80" height="80" as="geometry" />
        </mxCell>
        <mxCell id="ShSS7NOWxWKPyYZwDJwW-258" style="edgeStyle=orthogonalEdgeStyle;curved=1;rounded=0;orthogonalLoop=1;jettySize=auto;html=1;exitX=0.5;exitY=0;exitDx=0;exitDy=0;entryX=0.5;entryY=1;entryDx=0;entryDy=0;fontSize=12;startSize=8;endSize=8;" parent="1" source="ShSS7NOWxWKPyYZwDJwW-262" target="ShSS7NOWxWKPyYZwDJwW-265" edge="1">
          <mxGeometry relative="1" as="geometry" />
        </mxCell>
        <mxCell id="ShSS7NOWxWKPyYZwDJwW-259" value="e" style="edgeLabel;html=1;align=center;verticalAlign=middle;resizable=0;points=[];fontSize=12;" parent="ShSS7NOWxWKPyYZwDJwW-258" vertex="1" connectable="0">
          <mxGeometry x="-0.0828" relative="1" as="geometry">
            <mxPoint as="offset" />
          </mxGeometry>
        </mxCell>
        <mxCell id="ShSS7NOWxWKPyYZwDJwW-260" style="edgeStyle=orthogonalEdgeStyle;curved=1;rounded=0;orthogonalLoop=1;jettySize=auto;html=1;exitX=1;exitY=0.5;exitDx=0;exitDy=0;entryX=0;entryY=0.5;entryDx=0;entryDy=0;fontSize=12;startSize=8;endSize=8;" parent="1" source="ShSS7NOWxWKPyYZwDJwW-262" target="ShSS7NOWxWKPyYZwDJwW-268" edge="1">
          <mxGeometry relative="1" as="geometry" />
        </mxCell>
        <mxCell id="ShSS7NOWxWKPyYZwDJwW-261" value="&lt;span style=&quot;font-size: 11px;&quot;&gt;[a-z&lt;/span&gt;&lt;span style=&quot;color: light-dark(rgb(0, 0, 0), rgb(255, 255, 255)); font-size: 11px;&quot;&gt;]&lt;/span&gt;&lt;div style=&quot;font-size: 11px;&quot;&gt;&lt;span style=&quot;color: light-dark(rgb(0, 0, 0), rgb(255, 255, 255));&quot;&gt;[A-Z&lt;/span&gt;&lt;span style=&quot;color: light-dark(rgb(0, 0, 0), rgb(255, 255, 255));&quot;&gt;]&lt;/span&gt;&lt;/div&gt;&lt;div style=&quot;font-size: 11px;&quot;&gt;&lt;span style=&quot;color: light-dark(rgb(0, 0, 0), rgb(255, 255, 255));&quot;&gt;[0-9]&lt;/span&gt;&lt;/div&gt;&lt;div style=&quot;font-size: 11px;&quot;&gt;{e}&lt;/div&gt;" style="edgeLabel;html=1;align=center;verticalAlign=middle;resizable=0;points=[];fontSize=12;" parent="ShSS7NOWxWKPyYZwDJwW-260" vertex="1" connectable="0">
          <mxGeometry x="-0.1194" y="-2" relative="1" as="geometry">
            <mxPoint as="offset" />
          </mxGeometry>
        </mxCell>
        <mxCell id="ShSS7NOWxWKPyYZwDJwW-262" value="q63&lt;div&gt;identifier&lt;/div&gt;" style="ellipse;whiteSpace=wrap;html=1;aspect=fixed;strokeColor=#00FF00;" parent="1" vertex="1">
          <mxGeometry x="1568.3333129882812" y="317" width="80" height="80" as="geometry" />
        </mxCell>
        <mxCell id="ShSS7NOWxWKPyYZwDJwW-263" style="edgeStyle=orthogonalEdgeStyle;curved=1;rounded=0;orthogonalLoop=1;jettySize=auto;html=1;exitX=1;exitY=0.5;exitDx=0;exitDy=0;entryX=0.5;entryY=0;entryDx=0;entryDy=0;fontSize=12;startSize=8;endSize=8;" parent="1" source="ShSS7NOWxWKPyYZwDJwW-265" target="ShSS7NOWxWKPyYZwDJwW-268" edge="1">
          <mxGeometry relative="1" as="geometry" />
        </mxCell>
        <mxCell id="ShSS7NOWxWKPyYZwDJwW-264" value="&lt;span style=&quot;font-size: 11px;&quot;&gt;[a-z&lt;/span&gt;&lt;span style=&quot;color: light-dark(rgb(0, 0, 0), rgb(255, 255, 255)); font-size: 11px;&quot;&gt;]&lt;/span&gt;&lt;div style=&quot;font-size: 11px;&quot;&gt;&lt;span style=&quot;color: light-dark(rgb(0, 0, 0), rgb(255, 255, 255));&quot;&gt;[A-Z&lt;/span&gt;&lt;span style=&quot;color: light-dark(rgb(0, 0, 0), rgb(255, 255, 255));&quot;&gt;]&lt;/span&gt;&lt;/div&gt;&lt;div style=&quot;font-size: 11px;&quot;&gt;&lt;span style=&quot;color: light-dark(rgb(0, 0, 0), rgb(255, 255, 255));&quot;&gt;[0-9]&lt;/span&gt;&lt;/div&gt;" style="edgeLabel;html=1;align=center;verticalAlign=middle;resizable=0;points=[];fontSize=12;" parent="ShSS7NOWxWKPyYZwDJwW-263" vertex="1" connectable="0">
          <mxGeometry x="0.2283" y="-16" relative="1" as="geometry">
            <mxPoint as="offset" />
          </mxGeometry>
        </mxCell>
        <mxCell id="ShSS7NOWxWKPyYZwDJwW-265" value="q64&lt;div&gt;WHILE&lt;/div&gt;" style="ellipse;whiteSpace=wrap;html=1;aspect=fixed;strokeColor=#00FF00;" parent="1" vertex="1">
          <mxGeometry x="1568.3333129882812" y="191" width="80" height="80" as="geometry" />
        </mxCell>
        <mxCell id="ShSS7NOWxWKPyYZwDJwW-266" style="edgeStyle=orthogonalEdgeStyle;curved=1;rounded=0;orthogonalLoop=1;jettySize=auto;html=1;exitX=1;exitY=0;exitDx=0;exitDy=0;fontSize=12;startSize=8;endSize=8;entryX=1;entryY=0.5;entryDx=0;entryDy=0;" parent="1" source="ShSS7NOWxWKPyYZwDJwW-268" target="ShSS7NOWxWKPyYZwDJwW-268" edge="1">
          <mxGeometry relative="1" as="geometry">
            <mxPoint x="1874.3333129882812" y="453" as="targetPoint" />
            <Array as="points">
              <mxPoint x="1783.3333129882812" y="345" />
              <mxPoint x="1828.3333129882812" y="345" />
              <mxPoint x="1828.3333129882812" y="339" />
              <mxPoint x="1892.3333129882812" y="339" />
              <mxPoint x="1892.3333129882812" y="405" />
              <mxPoint x="1859.3333129882812" y="405" />
              <mxPoint x="1859.3333129882812" y="410" />
            </Array>
          </mxGeometry>
        </mxCell>
        <mxCell id="ShSS7NOWxWKPyYZwDJwW-267" value="&lt;span style=&quot;font-size: 11px;&quot;&gt;[a-z&lt;/span&gt;&lt;span style=&quot;color: light-dark(rgb(0, 0, 0), rgb(255, 255, 255)); font-size: 11px;&quot;&gt;]&lt;/span&gt;&lt;div style=&quot;font-size: 11px;&quot;&gt;&lt;span style=&quot;color: light-dark(rgb(0, 0, 0), rgb(255, 255, 255));&quot;&gt;[A-Z&lt;/span&gt;&lt;span style=&quot;color: light-dark(rgb(0, 0, 0), rgb(255, 255, 255));&quot;&gt;]&lt;/span&gt;&lt;/div&gt;&lt;div style=&quot;font-size: 11px;&quot;&gt;&lt;span style=&quot;color: light-dark(rgb(0, 0, 0), rgb(255, 255, 255));&quot;&gt;[0-9]&lt;/span&gt;&lt;/div&gt;" style="edgeLabel;html=1;align=center;verticalAlign=middle;resizable=0;points=[];fontSize=12;" parent="ShSS7NOWxWKPyYZwDJwW-266" vertex="1" connectable="0">
          <mxGeometry x="0.1543" y="-3" relative="1" as="geometry">
            <mxPoint y="1" as="offset" />
          </mxGeometry>
        </mxCell>
        <mxCell id="ShSS7NOWxWKPyYZwDJwW-268" value="q43&lt;div&gt;identifier&lt;/div&gt;" style="ellipse;whiteSpace=wrap;html=1;aspect=fixed;strokeColor=#00FF00;" parent="1" vertex="1">
          <mxGeometry x="1715.3333129882812" y="370" width="80" height="80" as="geometry" />
        </mxCell>
        <mxCell id="ShSS7NOWxWKPyYZwDJwW-269" style="edgeStyle=orthogonalEdgeStyle;curved=1;rounded=0;orthogonalLoop=1;jettySize=auto;html=1;exitX=1;exitY=0.5;exitDx=0;exitDy=0;entryX=0;entryY=0.5;entryDx=0;entryDy=0;fontSize=12;startSize=8;endSize=8;" parent="1" source="ShSS7NOWxWKPyYZwDJwW-273" target="ShSS7NOWxWKPyYZwDJwW-278" edge="1">
          <mxGeometry relative="1" as="geometry" />
        </mxCell>
        <mxCell id="ShSS7NOWxWKPyYZwDJwW-270" value="e" style="edgeLabel;html=1;align=center;verticalAlign=middle;resizable=0;points=[];fontSize=12;" parent="ShSS7NOWxWKPyYZwDJwW-269" vertex="1" connectable="0">
          <mxGeometry x="-0.0356" y="3" relative="1" as="geometry">
            <mxPoint as="offset" />
          </mxGeometry>
        </mxCell>
        <mxCell id="ShSS7NOWxWKPyYZwDJwW-271" style="edgeStyle=orthogonalEdgeStyle;curved=1;rounded=0;orthogonalLoop=1;jettySize=auto;html=1;exitX=0.5;exitY=0;exitDx=0;exitDy=0;entryX=0;entryY=1;entryDx=0;entryDy=0;fontSize=12;startSize=8;endSize=8;" parent="1" source="ShSS7NOWxWKPyYZwDJwW-273" target="ShSS7NOWxWKPyYZwDJwW-299" edge="1">
          <mxGeometry relative="1" as="geometry" />
        </mxCell>
        <mxCell id="ShSS7NOWxWKPyYZwDJwW-272" value="&lt;span style=&quot;font-size: 11px;&quot;&gt;[a-z&lt;/span&gt;&lt;span style=&quot;color: light-dark(rgb(0, 0, 0), rgb(255, 255, 255)); font-size: 11px;&quot;&gt;]&lt;/span&gt;&lt;div style=&quot;font-size: 11px;&quot;&gt;&lt;span style=&quot;color: light-dark(rgb(0, 0, 0), rgb(255, 255, 255));&quot;&gt;[A-Z&lt;/span&gt;&lt;span style=&quot;color: light-dark(rgb(0, 0, 0), rgb(255, 255, 255));&quot;&gt;]&lt;/span&gt;&lt;/div&gt;&lt;div style=&quot;font-size: 11px;&quot;&gt;&lt;span style=&quot;color: light-dark(rgb(0, 0, 0), rgb(255, 255, 255));&quot;&gt;[0-9]&lt;/span&gt;&lt;/div&gt;&lt;div style=&quot;font-size: 11px;&quot;&gt;{e}&lt;/div&gt;" style="edgeLabel;html=1;align=center;verticalAlign=middle;resizable=0;points=[];fontSize=12;" parent="ShSS7NOWxWKPyYZwDJwW-271" vertex="1" connectable="0">
          <mxGeometry x="-0.1856" y="-2" relative="1" as="geometry">
            <mxPoint as="offset" />
          </mxGeometry>
        </mxCell>
        <mxCell id="ShSS7NOWxWKPyYZwDJwW-273" value="q65&lt;div&gt;identifier&lt;/div&gt;" style="ellipse;whiteSpace=wrap;html=1;aspect=fixed;strokeColor=#00FF00;" parent="1" vertex="1">
          <mxGeometry x="1999.3333129882812" y="636" width="80" height="80" as="geometry" />
        </mxCell>
        <mxCell id="ShSS7NOWxWKPyYZwDJwW-274" style="edgeStyle=orthogonalEdgeStyle;curved=1;rounded=0;orthogonalLoop=1;jettySize=auto;html=1;exitX=1;exitY=0.5;exitDx=0;exitDy=0;entryX=0;entryY=0.5;entryDx=0;entryDy=0;fontSize=12;startSize=8;endSize=8;" parent="1" source="ShSS7NOWxWKPyYZwDJwW-278" target="ShSS7NOWxWKPyYZwDJwW-283" edge="1">
          <mxGeometry relative="1" as="geometry" />
        </mxCell>
        <mxCell id="ShSS7NOWxWKPyYZwDJwW-275" value="t" style="edgeLabel;html=1;align=center;verticalAlign=middle;resizable=0;points=[];fontSize=12;" parent="ShSS7NOWxWKPyYZwDJwW-274" vertex="1" connectable="0">
          <mxGeometry x="-0.0893" y="-2" relative="1" as="geometry">
            <mxPoint as="offset" />
          </mxGeometry>
        </mxCell>
        <mxCell id="ShSS7NOWxWKPyYZwDJwW-276" style="edgeStyle=orthogonalEdgeStyle;curved=1;rounded=0;orthogonalLoop=1;jettySize=auto;html=1;exitX=0.5;exitY=0;exitDx=0;exitDy=0;entryX=0.5;entryY=1;entryDx=0;entryDy=0;fontSize=12;startSize=8;endSize=8;" parent="1" source="ShSS7NOWxWKPyYZwDJwW-278" target="ShSS7NOWxWKPyYZwDJwW-299" edge="1">
          <mxGeometry relative="1" as="geometry" />
        </mxCell>
        <mxCell id="ShSS7NOWxWKPyYZwDJwW-277" value="&lt;span style=&quot;font-size: 11px;&quot;&gt;[a-z&lt;/span&gt;&lt;span style=&quot;color: light-dark(rgb(0, 0, 0), rgb(255, 255, 255)); font-size: 11px;&quot;&gt;]&lt;/span&gt;&lt;div style=&quot;font-size: 11px;&quot;&gt;&lt;span style=&quot;color: light-dark(rgb(0, 0, 0), rgb(255, 255, 255));&quot;&gt;[A-Z&lt;/span&gt;&lt;span style=&quot;color: light-dark(rgb(0, 0, 0), rgb(255, 255, 255));&quot;&gt;]&lt;/span&gt;&lt;/div&gt;&lt;div style=&quot;font-size: 11px;&quot;&gt;&lt;span style=&quot;color: light-dark(rgb(0, 0, 0), rgb(255, 255, 255));&quot;&gt;[0-9]&lt;/span&gt;&lt;/div&gt;&lt;div style=&quot;font-size: 11px;&quot;&gt;{t}&lt;/div&gt;" style="edgeLabel;html=1;align=center;verticalAlign=middle;resizable=0;points=[];fontSize=12;" parent="ShSS7NOWxWKPyYZwDJwW-276" vertex="1" connectable="0">
          <mxGeometry x="-0.5286" y="-10" relative="1" as="geometry">
            <mxPoint as="offset" />
          </mxGeometry>
        </mxCell>
        <mxCell id="ShSS7NOWxWKPyYZwDJwW-278" value="q66&lt;div&gt;identifier&lt;/div&gt;" style="ellipse;whiteSpace=wrap;html=1;aspect=fixed;strokeColor=#00FF00;" parent="1" vertex="1">
          <mxGeometry x="2130.3333129882812" y="636" width="80" height="80" as="geometry" />
        </mxCell>
        <mxCell id="ShSS7NOWxWKPyYZwDJwW-279" style="edgeStyle=orthogonalEdgeStyle;curved=1;rounded=0;orthogonalLoop=1;jettySize=auto;html=1;exitX=1;exitY=0.5;exitDx=0;exitDy=0;entryX=0;entryY=0.5;entryDx=0;entryDy=0;fontSize=12;startSize=8;endSize=8;" parent="1" source="ShSS7NOWxWKPyYZwDJwW-283" target="ShSS7NOWxWKPyYZwDJwW-288" edge="1">
          <mxGeometry relative="1" as="geometry" />
        </mxCell>
        <mxCell id="ShSS7NOWxWKPyYZwDJwW-280" value="u" style="edgeLabel;html=1;align=center;verticalAlign=middle;resizable=0;points=[];fontSize=12;" parent="ShSS7NOWxWKPyYZwDJwW-279" vertex="1" connectable="0">
          <mxGeometry x="-0.1721" y="-1" relative="1" as="geometry">
            <mxPoint as="offset" />
          </mxGeometry>
        </mxCell>
        <mxCell id="ShSS7NOWxWKPyYZwDJwW-281" style="edgeStyle=orthogonalEdgeStyle;curved=1;rounded=0;orthogonalLoop=1;jettySize=auto;html=1;exitX=0;exitY=0;exitDx=0;exitDy=0;entryX=0.5;entryY=1;entryDx=0;entryDy=0;fontSize=12;startSize=8;endSize=8;" parent="1" source="ShSS7NOWxWKPyYZwDJwW-283" target="ShSS7NOWxWKPyYZwDJwW-299" edge="1">
          <mxGeometry relative="1" as="geometry" />
        </mxCell>
        <mxCell id="ShSS7NOWxWKPyYZwDJwW-282" value="&lt;span style=&quot;font-size: 11px;&quot;&gt;[a-z&lt;/span&gt;&lt;span style=&quot;color: light-dark(rgb(0, 0, 0), rgb(255, 255, 255)); font-size: 11px;&quot;&gt;]&lt;/span&gt;&lt;div style=&quot;font-size: 11px;&quot;&gt;&lt;span style=&quot;color: light-dark(rgb(0, 0, 0), rgb(255, 255, 255));&quot;&gt;[A-Z&lt;/span&gt;&lt;span style=&quot;color: light-dark(rgb(0, 0, 0), rgb(255, 255, 255));&quot;&gt;]&lt;/span&gt;&lt;/div&gt;&lt;div style=&quot;font-size: 11px;&quot;&gt;&lt;span style=&quot;color: light-dark(rgb(0, 0, 0), rgb(255, 255, 255));&quot;&gt;[0-9]&lt;/span&gt;&lt;/div&gt;&lt;div style=&quot;font-size: 11px;&quot;&gt;{u}&lt;/div&gt;" style="edgeLabel;html=1;align=center;verticalAlign=middle;resizable=0;points=[];fontSize=12;" parent="ShSS7NOWxWKPyYZwDJwW-281" vertex="1" connectable="0">
          <mxGeometry x="-0.4564" y="7" relative="1" as="geometry">
            <mxPoint as="offset" />
          </mxGeometry>
        </mxCell>
        <mxCell id="ShSS7NOWxWKPyYZwDJwW-283" value="q67&lt;div&gt;identifier&lt;/div&gt;" style="ellipse;whiteSpace=wrap;html=1;aspect=fixed;strokeColor=#00FF00;" parent="1" vertex="1">
          <mxGeometry x="2261.3333129882812" y="636" width="80" height="80" as="geometry" />
        </mxCell>
        <mxCell id="ShSS7NOWxWKPyYZwDJwW-284" style="edgeStyle=orthogonalEdgeStyle;curved=1;rounded=0;orthogonalLoop=1;jettySize=auto;html=1;exitX=0.5;exitY=0;exitDx=0;exitDy=0;entryX=0.5;entryY=1;entryDx=0;entryDy=0;fontSize=12;startSize=8;endSize=8;" parent="1" source="ShSS7NOWxWKPyYZwDJwW-288" target="ShSS7NOWxWKPyYZwDJwW-293" edge="1">
          <mxGeometry relative="1" as="geometry" />
        </mxCell>
        <mxCell id="ShSS7NOWxWKPyYZwDJwW-285" value="r" style="edgeLabel;html=1;align=center;verticalAlign=middle;resizable=0;points=[];fontSize=12;" parent="ShSS7NOWxWKPyYZwDJwW-284" vertex="1" connectable="0">
          <mxGeometry x="-0.1266" y="2" relative="1" as="geometry">
            <mxPoint as="offset" />
          </mxGeometry>
        </mxCell>
        <mxCell id="ShSS7NOWxWKPyYZwDJwW-286" style="edgeStyle=orthogonalEdgeStyle;curved=1;rounded=0;orthogonalLoop=1;jettySize=auto;html=1;exitX=0;exitY=0;exitDx=0;exitDy=0;entryX=1;entryY=1;entryDx=0;entryDy=0;fontSize=12;startSize=8;endSize=8;" parent="1" source="ShSS7NOWxWKPyYZwDJwW-288" target="ShSS7NOWxWKPyYZwDJwW-299" edge="1">
          <mxGeometry relative="1" as="geometry">
            <Array as="points">
              <mxPoint x="2404.3333129882812" y="606" />
              <mxPoint x="2288.3333129882812" y="606" />
              <mxPoint x="2288.3333129882812" y="501" />
            </Array>
          </mxGeometry>
        </mxCell>
        <mxCell id="ShSS7NOWxWKPyYZwDJwW-287" value="&lt;span style=&quot;font-size: 11px;&quot;&gt;[a-z&lt;/span&gt;&lt;span style=&quot;color: light-dark(rgb(0, 0, 0), rgb(255, 255, 255)); font-size: 11px;&quot;&gt;]&lt;/span&gt;&lt;div style=&quot;font-size: 11px;&quot;&gt;&lt;span style=&quot;color: light-dark(rgb(0, 0, 0), rgb(255, 255, 255));&quot;&gt;[A-Z&lt;/span&gt;&lt;span style=&quot;color: light-dark(rgb(0, 0, 0), rgb(255, 255, 255));&quot;&gt;]&lt;/span&gt;&lt;/div&gt;&lt;div style=&quot;font-size: 11px;&quot;&gt;&lt;span style=&quot;color: light-dark(rgb(0, 0, 0), rgb(255, 255, 255));&quot;&gt;[0-9]&lt;/span&gt;&lt;/div&gt;&lt;div style=&quot;font-size: 11px;&quot;&gt;{r}&lt;/div&gt;" style="edgeLabel;html=1;align=center;verticalAlign=middle;resizable=0;points=[];fontSize=12;" parent="ShSS7NOWxWKPyYZwDJwW-286" vertex="1" connectable="0">
          <mxGeometry x="-0.3475" relative="1" as="geometry">
            <mxPoint as="offset" />
          </mxGeometry>
        </mxCell>
        <mxCell id="ShSS7NOWxWKPyYZwDJwW-288" value="q68&lt;div&gt;identifier&lt;/div&gt;" style="ellipse;whiteSpace=wrap;html=1;aspect=fixed;strokeColor=#00FF00;" parent="1" vertex="1">
          <mxGeometry x="2392.3333129882812" y="636" width="80" height="80" as="geometry" />
        </mxCell>
        <mxCell id="ShSS7NOWxWKPyYZwDJwW-289" style="edgeStyle=orthogonalEdgeStyle;curved=1;rounded=0;orthogonalLoop=1;jettySize=auto;html=1;exitX=0.5;exitY=0;exitDx=0;exitDy=0;entryX=0.5;entryY=1;entryDx=0;entryDy=0;fontSize=12;startSize=8;endSize=8;" parent="1" source="ShSS7NOWxWKPyYZwDJwW-293" target="ShSS7NOWxWKPyYZwDJwW-296" edge="1">
          <mxGeometry relative="1" as="geometry" />
        </mxCell>
        <mxCell id="ShSS7NOWxWKPyYZwDJwW-290" value="n" style="edgeLabel;html=1;align=center;verticalAlign=middle;resizable=0;points=[];fontSize=12;" parent="ShSS7NOWxWKPyYZwDJwW-289" vertex="1" connectable="0">
          <mxGeometry relative="1" as="geometry">
            <mxPoint as="offset" />
          </mxGeometry>
        </mxCell>
        <mxCell id="ShSS7NOWxWKPyYZwDJwW-291" style="edgeStyle=orthogonalEdgeStyle;curved=1;rounded=0;orthogonalLoop=1;jettySize=auto;html=1;exitX=0;exitY=0.5;exitDx=0;exitDy=0;entryX=1;entryY=0.5;entryDx=0;entryDy=0;fontSize=12;startSize=8;endSize=8;" parent="1" source="ShSS7NOWxWKPyYZwDJwW-293" target="ShSS7NOWxWKPyYZwDJwW-299" edge="1">
          <mxGeometry relative="1" as="geometry" />
        </mxCell>
        <mxCell id="ShSS7NOWxWKPyYZwDJwW-292" value="&lt;span style=&quot;font-size: 11px;&quot;&gt;[a-z&lt;/span&gt;&lt;span style=&quot;color: light-dark(rgb(0, 0, 0), rgb(255, 255, 255)); font-size: 11px;&quot;&gt;]&lt;/span&gt;&lt;div style=&quot;font-size: 11px;&quot;&gt;&lt;span style=&quot;color: light-dark(rgb(0, 0, 0), rgb(255, 255, 255));&quot;&gt;[A-Z&lt;/span&gt;&lt;span style=&quot;color: light-dark(rgb(0, 0, 0), rgb(255, 255, 255));&quot;&gt;]&lt;/span&gt;&lt;/div&gt;&lt;div style=&quot;font-size: 11px;&quot;&gt;&lt;span style=&quot;color: light-dark(rgb(0, 0, 0), rgb(255, 255, 255));&quot;&gt;[0-9]&lt;/span&gt;&lt;/div&gt;&lt;div style=&quot;font-size: 11px;&quot;&gt;{n}&lt;/div&gt;" style="edgeLabel;html=1;align=center;verticalAlign=middle;resizable=0;points=[];fontSize=12;" parent="ShSS7NOWxWKPyYZwDJwW-291" vertex="1" connectable="0">
          <mxGeometry x="-0.5703" y="-12" relative="1" as="geometry">
            <mxPoint as="offset" />
          </mxGeometry>
        </mxCell>
        <mxCell id="ShSS7NOWxWKPyYZwDJwW-293" value="q69&lt;div&gt;identifier&lt;/div&gt;" style="ellipse;whiteSpace=wrap;html=1;aspect=fixed;strokeColor=#00FF00;" parent="1" vertex="1">
          <mxGeometry x="2392.3333129882812" y="513" width="80" height="80" as="geometry" />
        </mxCell>
        <mxCell id="ShSS7NOWxWKPyYZwDJwW-294" style="edgeStyle=orthogonalEdgeStyle;curved=1;rounded=0;orthogonalLoop=1;jettySize=auto;html=1;exitX=0;exitY=0.5;exitDx=0;exitDy=0;entryX=1;entryY=0;entryDx=0;entryDy=0;fontSize=12;startSize=8;endSize=8;" parent="1" source="ShSS7NOWxWKPyYZwDJwW-296" target="ShSS7NOWxWKPyYZwDJwW-299" edge="1">
          <mxGeometry relative="1" as="geometry" />
        </mxCell>
        <mxCell id="ShSS7NOWxWKPyYZwDJwW-295" value="&lt;span style=&quot;font-size: 11px;&quot;&gt;[a-z&lt;/span&gt;&lt;span style=&quot;color: light-dark(rgb(0, 0, 0), rgb(255, 255, 255)); font-size: 11px;&quot;&gt;]&lt;/span&gt;&lt;div style=&quot;font-size: 11px;&quot;&gt;&lt;span style=&quot;color: light-dark(rgb(0, 0, 0), rgb(255, 255, 255));&quot;&gt;[A-Z&lt;/span&gt;&lt;span style=&quot;color: light-dark(rgb(0, 0, 0), rgb(255, 255, 255));&quot;&gt;]&lt;/span&gt;&lt;/div&gt;&lt;div style=&quot;font-size: 11px;&quot;&gt;&lt;span style=&quot;color: light-dark(rgb(0, 0, 0), rgb(255, 255, 255));&quot;&gt;[0-9]&lt;/span&gt;&lt;/div&gt;" style="edgeLabel;html=1;align=center;verticalAlign=middle;resizable=0;points=[];fontSize=12;" parent="ShSS7NOWxWKPyYZwDJwW-294" vertex="1" connectable="0">
          <mxGeometry x="-0.3353" y="8" relative="1" as="geometry">
            <mxPoint as="offset" />
          </mxGeometry>
        </mxCell>
        <mxCell id="ShSS7NOWxWKPyYZwDJwW-296" value="q70&lt;div&gt;RETURN&lt;/div&gt;" style="ellipse;whiteSpace=wrap;html=1;aspect=fixed;strokeColor=#00FF00;" parent="1" vertex="1">
          <mxGeometry x="2392.3333129882812" y="377" width="80" height="80" as="geometry" />
        </mxCell>
        <mxCell id="ShSS7NOWxWKPyYZwDJwW-297" style="edgeStyle=orthogonalEdgeStyle;curved=1;rounded=0;orthogonalLoop=1;jettySize=auto;html=1;exitX=0;exitY=0;exitDx=0;exitDy=0;fontSize=12;startSize=8;endSize=8;entryX=0;entryY=0;entryDx=0;entryDy=0;" parent="1" source="ShSS7NOWxWKPyYZwDJwW-299" target="ShSS7NOWxWKPyYZwDJwW-299" edge="1">
          <mxGeometry relative="1" as="geometry">
            <mxPoint x="2195.3333129882812" y="394" as="targetPoint" />
            <Array as="points">
              <mxPoint x="2197.3333129882812" y="454" />
              <mxPoint x="2137.3333129882812" y="454" />
              <mxPoint x="2137.3333129882812" y="394" />
              <mxPoint x="2197.3333129882812" y="394" />
            </Array>
          </mxGeometry>
        </mxCell>
        <mxCell id="ShSS7NOWxWKPyYZwDJwW-298" value="&lt;span style=&quot;font-size: 11px;&quot;&gt;[a-z&lt;/span&gt;&lt;span style=&quot;color: light-dark(rgb(0, 0, 0), rgb(255, 255, 255)); font-size: 11px;&quot;&gt;]&lt;/span&gt;&lt;div style=&quot;font-size: 11px;&quot;&gt;&lt;span style=&quot;color: light-dark(rgb(0, 0, 0), rgb(255, 255, 255));&quot;&gt;[A-Z&lt;/span&gt;&lt;span style=&quot;color: light-dark(rgb(0, 0, 0), rgb(255, 255, 255));&quot;&gt;]&lt;/span&gt;&lt;/div&gt;&lt;div style=&quot;font-size: 11px;&quot;&gt;&lt;span style=&quot;color: light-dark(rgb(0, 0, 0), rgb(255, 255, 255));&quot;&gt;[0-9]&lt;/span&gt;&lt;/div&gt;" style="edgeLabel;html=1;align=center;verticalAlign=middle;resizable=0;points=[];fontSize=12;" parent="ShSS7NOWxWKPyYZwDJwW-297" vertex="1" connectable="0">
          <mxGeometry x="0.0042" y="-7" relative="1" as="geometry">
            <mxPoint as="offset" />
          </mxGeometry>
        </mxCell>
        <mxCell id="ShSS7NOWxWKPyYZwDJwW-299" value="q43&lt;div&gt;identifier&lt;/div&gt;" style="ellipse;whiteSpace=wrap;html=1;aspect=fixed;strokeColor=#00FF00;" parent="1" vertex="1">
          <mxGeometry x="2186.0033129882813" y="433" width="80" height="80" as="geometry" />
        </mxCell>
        <mxCell id="ShSS7NOWxWKPyYZwDJwW-300" style="edgeStyle=orthogonalEdgeStyle;curved=1;rounded=0;orthogonalLoop=1;jettySize=auto;html=1;exitX=0.5;exitY=0;exitDx=0;exitDy=0;fontSize=12;startSize=8;endSize=8;entryX=0.5;entryY=0;entryDx=0;entryDy=0;" parent="1" source="ShSS7NOWxWKPyYZwDJwW-302" target="ShSS7NOWxWKPyYZwDJwW-302" edge="1">
          <mxGeometry relative="1" as="geometry">
            <mxPoint x="1966.3333129882812" y="489" as="targetPoint" />
            <Array as="points">
              <mxPoint x="1875.3333129882812" y="538" />
              <mxPoint x="1875.3333129882812" y="471" />
              <mxPoint x="1937.3333129882812" y="471" />
              <mxPoint x="1937.3333129882812" y="538" />
            </Array>
          </mxGeometry>
        </mxCell>
        <mxCell id="ShSS7NOWxWKPyYZwDJwW-301" value="&lt;span style=&quot;font-size: 11px;&quot;&gt;[a-z&lt;/span&gt;&lt;span style=&quot;color: light-dark(rgb(0, 0, 0), rgb(255, 255, 255)); font-size: 11px;&quot;&gt;]&lt;/span&gt;&lt;div style=&quot;font-size: 11px;&quot;&gt;&lt;span style=&quot;color: light-dark(rgb(0, 0, 0), rgb(255, 255, 255));&quot;&gt;[A-Z&lt;/span&gt;&lt;span style=&quot;color: light-dark(rgb(0, 0, 0), rgb(255, 255, 255));&quot;&gt;]&lt;/span&gt;&lt;/div&gt;&lt;div style=&quot;font-size: 11px;&quot;&gt;&lt;span style=&quot;color: light-dark(rgb(0, 0, 0), rgb(255, 255, 255));&quot;&gt;[0-9]&lt;/span&gt;&lt;/div&gt;" style="edgeLabel;html=1;align=center;verticalAlign=middle;resizable=0;points=[];fontSize=12;" parent="ShSS7NOWxWKPyYZwDJwW-300" vertex="1" connectable="0">
          <mxGeometry x="0.0312" relative="1" as="geometry">
            <mxPoint as="offset" />
          </mxGeometry>
        </mxCell>
        <mxCell id="ShSS7NOWxWKPyYZwDJwW-302" value="q43&lt;div&gt;identifier&lt;/div&gt;" style="ellipse;whiteSpace=wrap;html=1;aspect=fixed;strokeColor=#00FF00;" parent="1" vertex="1">
          <mxGeometry x="1869.3333129882812" y="538" width="80" height="80" as="geometry" />
        </mxCell>
        <mxCell id="ShSS7NOWxWKPyYZwDJwW-303" style="edgeStyle=orthogonalEdgeStyle;rounded=0;orthogonalLoop=1;jettySize=auto;html=1;exitX=1;exitY=0;exitDx=0;exitDy=0;curved=1;" parent="1" source="ShSS7NOWxWKPyYZwDJwW-311" target="ShSS7NOWxWKPyYZwDJwW-311" edge="1">
          <mxGeometry relative="1" as="geometry">
            <mxPoint x="1530" y="-100" as="targetPoint" />
            <Array as="points">
              <mxPoint x="1550" y="-28" />
              <mxPoint x="1550" y="-90" />
              <mxPoint x="1496" y="-90" />
            </Array>
          </mxGeometry>
        </mxCell>
        <mxCell id="ShSS7NOWxWKPyYZwDJwW-304" value="space&lt;div&gt;new line&lt;/div&gt;" style="edgeLabel;html=1;align=center;verticalAlign=middle;resizable=0;points=[];" parent="ShSS7NOWxWKPyYZwDJwW-303" vertex="1" connectable="0">
          <mxGeometry x="-0.2141" y="1" relative="1" as="geometry">
            <mxPoint as="offset" />
          </mxGeometry>
        </mxCell>
        <mxCell id="ShSS7NOWxWKPyYZwDJwW-305" style="edgeStyle=orthogonalEdgeStyle;rounded=0;orthogonalLoop=1;jettySize=auto;html=1;exitX=1;exitY=0.5;exitDx=0;exitDy=0;entryX=0;entryY=0.5;entryDx=0;entryDy=0;curved=1;" parent="1" source="ShSS7NOWxWKPyYZwDJwW-311" target="ShSS7NOWxWKPyYZwDJwW-316" edge="1">
          <mxGeometry relative="1" as="geometry" />
        </mxCell>
        <mxCell id="ShSS7NOWxWKPyYZwDJwW-306" value="&quot;" style="edgeLabel;html=1;align=center;verticalAlign=middle;resizable=0;points=[];" parent="ShSS7NOWxWKPyYZwDJwW-305" vertex="1" connectable="0">
          <mxGeometry x="0.0444" y="1" relative="1" as="geometry">
            <mxPoint as="offset" />
          </mxGeometry>
        </mxCell>
        <mxCell id="ShSS7NOWxWKPyYZwDJwW-307" style="edgeStyle=orthogonalEdgeStyle;rounded=0;orthogonalLoop=1;jettySize=auto;html=1;exitX=1;exitY=1;exitDx=0;exitDy=0;entryX=0;entryY=0;entryDx=0;entryDy=0;curved=1;" parent="1" source="ShSS7NOWxWKPyYZwDJwW-311" target="ShSS7NOWxWKPyYZwDJwW-320" edge="1">
          <mxGeometry relative="1" as="geometry" />
        </mxCell>
        <mxCell id="ShSS7NOWxWKPyYZwDJwW-308" value="&#39;" style="edgeLabel;html=1;align=center;verticalAlign=middle;resizable=0;points=[];" parent="ShSS7NOWxWKPyYZwDJwW-307" vertex="1" connectable="0">
          <mxGeometry x="0.2111" y="-11" relative="1" as="geometry">
            <mxPoint as="offset" />
          </mxGeometry>
        </mxCell>
        <mxCell id="ShSS7NOWxWKPyYZwDJwW-309" style="edgeStyle=orthogonalEdgeStyle;rounded=0;orthogonalLoop=1;jettySize=auto;html=1;exitX=0;exitY=1;exitDx=0;exitDy=0;entryX=1;entryY=0;entryDx=0;entryDy=0;curved=1;" parent="1" source="ShSS7NOWxWKPyYZwDJwW-311" target="ShSS7NOWxWKPyYZwDJwW-325" edge="1">
          <mxGeometry relative="1" as="geometry" />
        </mxCell>
        <mxCell id="ShSS7NOWxWKPyYZwDJwW-310" value="[1-9]" style="edgeLabel;html=1;align=center;verticalAlign=middle;resizable=0;points=[];" parent="ShSS7NOWxWKPyYZwDJwW-309" vertex="1" connectable="0">
          <mxGeometry x="0.0074" y="2" relative="1" as="geometry">
            <mxPoint as="offset" />
          </mxGeometry>
        </mxCell>
        <mxCell id="F5IuHL4hUCGM0b5_d6Q6-3" style="edgeStyle=orthogonalEdgeStyle;rounded=0;orthogonalLoop=1;jettySize=auto;html=1;exitX=0;exitY=0.5;exitDx=0;exitDy=0;entryX=1;entryY=0.5;entryDx=0;entryDy=0;curved=1;" parent="1" source="ShSS7NOWxWKPyYZwDJwW-311" target="F5IuHL4hUCGM0b5_d6Q6-1" edge="1">
          <mxGeometry relative="1" as="geometry" />
        </mxCell>
        <mxCell id="F5IuHL4hUCGM0b5_d6Q6-4" value="0" style="edgeLabel;html=1;align=center;verticalAlign=middle;resizable=0;points=[];" parent="F5IuHL4hUCGM0b5_d6Q6-3" vertex="1" connectable="0">
          <mxGeometry x="-0.0722" relative="1" as="geometry">
            <mxPoint as="offset" />
          </mxGeometry>
        </mxCell>
        <mxCell id="ShSS7NOWxWKPyYZwDJwW-311" value="q0" style="ellipse;whiteSpace=wrap;html=1;aspect=fixed;" parent="1" vertex="1">
          <mxGeometry x="1430" y="-40" width="80" height="80" as="geometry" />
        </mxCell>
        <mxCell id="ShSS7NOWxWKPyYZwDJwW-312" style="edgeStyle=orthogonalEdgeStyle;rounded=0;orthogonalLoop=1;jettySize=auto;html=1;exitX=1;exitY=0.5;exitDx=0;exitDy=0;entryX=0;entryY=0.5;entryDx=0;entryDy=0;curved=1;" parent="1" source="ShSS7NOWxWKPyYZwDJwW-316" target="ShSS7NOWxWKPyYZwDJwW-317" edge="1">
          <mxGeometry relative="1" as="geometry" />
        </mxCell>
        <mxCell id="ShSS7NOWxWKPyYZwDJwW-313" value="&quot;" style="edgeLabel;html=1;align=center;verticalAlign=middle;resizable=0;points=[];" parent="ShSS7NOWxWKPyYZwDJwW-312" vertex="1" connectable="0">
          <mxGeometry x="0.0059" y="-2" relative="1" as="geometry">
            <mxPoint as="offset" />
          </mxGeometry>
        </mxCell>
        <mxCell id="ShSS7NOWxWKPyYZwDJwW-314" style="edgeStyle=orthogonalEdgeStyle;rounded=0;orthogonalLoop=1;jettySize=auto;html=1;exitX=0;exitY=0;exitDx=0;exitDy=0;curved=1;entryX=1;entryY=0;entryDx=0;entryDy=0;" parent="1" source="ShSS7NOWxWKPyYZwDJwW-316" target="ShSS7NOWxWKPyYZwDJwW-316" edge="1">
          <mxGeometry relative="1" as="geometry">
            <mxPoint x="1650" y="-50" as="targetPoint" />
            <Array as="points">
              <mxPoint x="1582" y="-80" />
              <mxPoint x="1660" y="-80" />
              <mxPoint x="1660" y="-18" />
            </Array>
          </mxGeometry>
        </mxCell>
        <mxCell id="ShSS7NOWxWKPyYZwDJwW-315" value="[everything]&lt;div&gt;{&quot;,new line}&lt;/div&gt;" style="edgeLabel;html=1;align=center;verticalAlign=middle;resizable=0;points=[];" parent="ShSS7NOWxWKPyYZwDJwW-314" vertex="1" connectable="0">
          <mxGeometry x="-0.0086" y="1" relative="1" as="geometry">
            <mxPoint as="offset" />
          </mxGeometry>
        </mxCell>
        <mxCell id="ShSS7NOWxWKPyYZwDJwW-316" value="q71" style="ellipse;whiteSpace=wrap;html=1;aspect=fixed;" parent="1" vertex="1">
          <mxGeometry x="1570" y="-30" width="80" height="80" as="geometry" />
        </mxCell>
        <mxCell id="ShSS7NOWxWKPyYZwDJwW-317" value="q72&lt;div&gt;string_literal&lt;/div&gt;" style="ellipse;whiteSpace=wrap;html=1;aspect=fixed;strokeColor=#00FF00;" parent="1" vertex="1">
          <mxGeometry x="1700" y="-30" width="80" height="80" as="geometry" />
        </mxCell>
        <mxCell id="ShSS7NOWxWKPyYZwDJwW-318" style="edgeStyle=orthogonalEdgeStyle;rounded=0;orthogonalLoop=1;jettySize=auto;html=1;exitX=1;exitY=0.5;exitDx=0;exitDy=0;entryX=0;entryY=0.5;entryDx=0;entryDy=0;curved=1;" parent="1" source="ShSS7NOWxWKPyYZwDJwW-320" target="ShSS7NOWxWKPyYZwDJwW-323" edge="1">
          <mxGeometry relative="1" as="geometry" />
        </mxCell>
        <mxCell id="ShSS7NOWxWKPyYZwDJwW-319" value="[everything]&lt;div&gt;{&#39;,new line}&lt;/div&gt;" style="edgeLabel;html=1;align=center;verticalAlign=middle;resizable=0;points=[];" parent="ShSS7NOWxWKPyYZwDJwW-318" vertex="1" connectable="0">
          <mxGeometry x="-0.0571" relative="1" as="geometry">
            <mxPoint as="offset" />
          </mxGeometry>
        </mxCell>
        <mxCell id="ShSS7NOWxWKPyYZwDJwW-320" value="q73" style="ellipse;whiteSpace=wrap;html=1;aspect=fixed;" parent="1" vertex="1">
          <mxGeometry x="1530" y="70" width="80" height="80" as="geometry" />
        </mxCell>
        <mxCell id="ShSS7NOWxWKPyYZwDJwW-321" style="edgeStyle=orthogonalEdgeStyle;rounded=0;orthogonalLoop=1;jettySize=auto;html=1;exitX=1;exitY=0.5;exitDx=0;exitDy=0;entryX=0;entryY=0.5;entryDx=0;entryDy=0;curved=1;" parent="1" source="ShSS7NOWxWKPyYZwDJwW-323" target="ShSS7NOWxWKPyYZwDJwW-324" edge="1">
          <mxGeometry relative="1" as="geometry" />
        </mxCell>
        <mxCell id="ShSS7NOWxWKPyYZwDJwW-322" value="&#39;" style="edgeLabel;html=1;align=center;verticalAlign=middle;resizable=0;points=[];" parent="ShSS7NOWxWKPyYZwDJwW-321" vertex="1" connectable="0">
          <mxGeometry x="-0.0354" y="-1" relative="1" as="geometry">
            <mxPoint as="offset" />
          </mxGeometry>
        </mxCell>
        <mxCell id="ShSS7NOWxWKPyYZwDJwW-323" value="q74" style="ellipse;whiteSpace=wrap;html=1;aspect=fixed;" parent="1" vertex="1">
          <mxGeometry x="1720" y="70" width="80" height="80" as="geometry" />
        </mxCell>
        <mxCell id="ShSS7NOWxWKPyYZwDJwW-324" value="q75&lt;div&gt;char_literal&lt;/div&gt;" style="ellipse;whiteSpace=wrap;html=1;aspect=fixed;strokeColor=#00FF00;" parent="1" vertex="1">
          <mxGeometry x="1870" y="70" width="80" height="80" as="geometry" />
        </mxCell>
        <mxCell id="ShSS7NOWxWKPyYZwDJwW-325" value="q76&lt;div&gt;int_literal&lt;/div&gt;" style="ellipse;whiteSpace=wrap;html=1;aspect=fixed;strokeColor=#00FF00;" parent="1" vertex="1">
          <mxGeometry x="1320" y="40" width="80" height="80" as="geometry" />
        </mxCell>
        <mxCell id="ShSS7NOWxWKPyYZwDJwW-326" style="edgeStyle=orthogonalEdgeStyle;rounded=0;orthogonalLoop=1;jettySize=auto;html=1;exitX=0;exitY=1;exitDx=0;exitDy=0;entryX=1;entryY=1;entryDx=0;entryDy=0;curved=1;" parent="1" source="ShSS7NOWxWKPyYZwDJwW-325" target="ShSS7NOWxWKPyYZwDJwW-325" edge="1">
          <mxGeometry relative="1" as="geometry">
            <Array as="points">
              <mxPoint x="1332" y="160" />
              <mxPoint x="1388" y="160" />
            </Array>
          </mxGeometry>
        </mxCell>
        <mxCell id="ShSS7NOWxWKPyYZwDJwW-327" value="[0-9]" style="edgeLabel;html=1;align=center;verticalAlign=middle;resizable=0;points=[];" parent="ShSS7NOWxWKPyYZwDJwW-326" vertex="1" connectable="0">
          <mxGeometry x="-0.0125" relative="1" as="geometry">
            <mxPoint as="offset" />
          </mxGeometry>
        </mxCell>
        <mxCell id="F5IuHL4hUCGM0b5_d6Q6-1" value="q77&lt;div&gt;int_literal&lt;/div&gt;" style="ellipse;whiteSpace=wrap;html=1;aspect=fixed;strokeColor=#00FF00;" parent="1" vertex="1">
          <mxGeometry x="1270" y="-40" width="80" height="80" as="geometry" />
        </mxCell>
      </root>
    </mxGraphModel>
  </diagram>
</mxfile>
